<svg width="926" height="541" viewBox="0 0 926 541" fill="none" xmlns="http://www.w3.org/2000/svg">
<g clip-path="url(#clip0_69_159)" filter="url(#filter0_d_69_159)">
<path d="M7.50002 529L7.5 4" stroke="url(#paint0_linear_69_159)" stroke-dasharray="15 15"/>
<path d="M137.5 529V4" stroke="url(#paint1_linear_69_159)" stroke-dasharray="15 15"/>
<path d="M267.5 529V4" stroke="url(#paint2_linear_69_159)" stroke-dasharray="15 15"/>
<path d="M397.5 529V4" stroke="url(#paint3_linear_69_159)" stroke-dasharray="15 15"/>
<path d="M527.5 529V4" stroke="url(#paint4_linear_69_159)" stroke-dasharray="15 15"/>
<path d="M657.5 529V4" stroke="url(#paint5_linear_69_159)" stroke-dasharray="15 15"/>
<path d="M787.5 529V4" stroke="url(#paint6_linear_69_159)" stroke-dasharray="15 15"/>
<path d="M917.5 529V4" stroke="url(#paint7_linear_69_159)" stroke-dasharray="15 15"/>
<path d="M299.128 316.497C297.045 316.497 295.168 316.083 293.499 315.254C291.83 314.426 290.493 313.289 289.487 311.845C288.48 310.401 287.93 308.756 287.835 306.909H292.097C292.262 308.554 293.008 309.916 294.334 310.993C295.671 312.058 297.269 312.591 299.128 312.591C300.619 312.591 301.945 312.242 303.105 311.543C304.277 310.845 305.194 309.886 305.857 308.667C306.532 307.436 306.869 306.045 306.869 304.494C306.869 302.908 306.52 301.494 305.822 300.251C305.135 298.996 304.188 298.008 302.981 297.286C301.773 296.563 300.394 296.196 298.844 296.185C297.731 296.173 296.589 296.344 295.417 296.7C294.245 297.043 293.28 297.487 292.523 298.031L288.403 297.534L290.605 279.636H309.497V283.543H294.298L293.02 294.267H293.233C293.979 293.675 294.914 293.184 296.038 292.793C297.163 292.403 298.335 292.207 299.554 292.207C301.779 292.207 303.762 292.74 305.502 293.805C307.254 294.859 308.627 296.303 309.621 298.138C310.628 299.973 311.131 302.068 311.131 304.423C311.131 306.743 310.61 308.815 309.568 310.638C308.538 312.449 307.118 313.881 305.307 314.935C303.496 315.976 301.436 316.497 299.128 316.497Z" fill="#262626"/>
<path d="M169.625 316.497C166.95 316.497 164.671 315.769 162.789 314.313C160.907 312.845 159.469 310.721 158.474 307.939C157.48 305.145 156.983 301.772 156.983 297.818C156.983 293.888 157.48 290.532 158.474 287.751C159.481 284.957 160.925 282.826 162.807 281.359C164.701 279.879 166.973 279.139 169.625 279.139C172.277 279.139 174.543 279.879 176.425 281.359C178.319 282.826 179.763 284.957 180.758 287.751C181.764 290.532 182.267 293.888 182.267 297.818C182.267 301.772 181.77 305.145 180.776 307.939C179.781 310.721 178.343 312.845 176.461 314.313C174.579 315.769 172.3 316.497 169.625 316.497ZM169.625 312.591C172.277 312.591 174.336 311.312 175.804 308.756C177.272 306.199 178.006 302.553 178.006 297.818C178.006 294.67 177.668 291.988 176.994 289.775C176.331 287.561 175.372 285.875 174.117 284.714C172.874 283.554 171.377 282.974 169.625 282.974C166.997 282.974 164.943 284.271 163.464 286.863C161.984 289.443 161.244 293.095 161.244 297.818C161.244 300.967 161.576 303.642 162.239 305.844C162.902 308.045 163.854 309.72 165.097 310.869C166.352 312.017 167.861 312.591 169.625 312.591Z" fill="#262626"/>
<path d="M45.4601 295.865V299.771H29.551V295.865H45.4601ZM64.1258 316.497C62.0425 316.497 60.1663 316.083 58.4972 315.254C56.8282 314.426 55.4906 313.289 54.4845 311.845C53.4783 310.401 52.9279 308.756 52.8332 306.909H57.0945C57.2603 308.554 58.006 309.916 59.3318 310.993C60.6693 312.058 62.2674 312.591 64.1258 312.591C65.6173 312.591 66.943 312.242 68.1031 311.543C69.2749 310.845 70.1923 309.886 70.8552 308.667C71.5299 307.436 71.8673 306.045 71.8673 304.494C71.8673 302.908 71.5181 301.494 70.8197 300.251C70.1331 298.996 69.1862 298.008 67.9788 297.286C66.7714 296.563 65.3924 296.196 63.8417 296.185C62.729 296.173 61.5867 296.344 60.4149 296.7C59.243 297.043 58.2783 297.487 57.5207 298.031L53.4014 297.534L55.6031 279.636H74.4951V283.543H59.2962L58.0178 294.267H58.2309C58.9766 293.675 59.9118 293.184 61.0363 292.793C62.1608 292.403 63.3327 292.207 64.5519 292.207C66.7773 292.207 68.76 292.74 70.5001 293.805C72.252 294.859 73.6251 296.303 74.6194 298.138C75.6256 299.973 76.1286 302.068 76.1286 304.423C76.1286 306.743 75.6078 308.815 74.5661 310.638C73.5363 312.449 72.1158 313.881 70.3048 314.935C68.4937 315.976 66.434 316.497 64.1258 316.497Z" fill="#262626"/>
<path d="M427.548 279.636V316H423.145V284.253H422.932L414.054 290.148V285.673L423.145 279.636H427.548ZM449.867 316.497C447.192 316.497 444.913 315.769 443.031 314.313C441.149 312.845 439.711 310.721 438.717 307.939C437.722 305.145 437.225 301.772 437.225 297.818C437.225 293.888 437.722 290.532 438.717 287.751C439.723 284.957 441.167 282.826 443.049 281.359C444.943 279.879 447.216 279.139 449.867 279.139C452.519 279.139 454.786 279.879 456.668 281.359C458.562 282.826 460.006 284.957 461 287.751C462.006 290.532 462.509 293.888 462.509 297.818C462.509 301.772 462.012 305.145 461.018 307.939C460.023 310.721 458.585 312.845 456.703 314.313C454.821 315.769 452.542 316.497 449.867 316.497ZM449.867 312.591C452.519 312.591 454.578 311.312 456.046 308.756C457.514 306.199 458.248 302.553 458.248 297.818C458.248 294.67 457.911 291.988 457.236 289.775C456.573 287.561 455.614 285.875 454.359 284.714C453.116 283.554 451.619 282.974 449.867 282.974C447.239 282.974 445.186 284.271 443.706 286.863C442.226 289.443 441.487 293.095 441.487 297.818C441.487 300.967 441.818 303.642 442.481 305.844C443.144 308.045 444.097 309.72 445.339 310.869C446.594 312.017 448.103 312.591 449.867 312.591Z" fill="#262626"/>
<path d="M556.548 279.636V316H552.145V284.253H551.932L543.054 290.148V285.673L552.145 279.636H556.548ZM578.37 316.497C576.287 316.497 574.411 316.083 572.741 315.254C571.072 314.426 569.735 313.289 568.729 311.845C567.723 310.401 567.172 308.756 567.077 306.909H571.339C571.504 308.554 572.25 309.916 573.576 310.993C574.914 312.058 576.512 312.591 578.37 312.591C579.862 312.591 581.187 312.242 582.347 311.543C583.519 310.845 584.437 309.886 585.099 308.667C585.774 307.436 586.112 306.045 586.112 304.494C586.112 302.908 585.762 301.494 585.064 300.251C584.377 298.996 583.43 298.008 582.223 297.286C581.016 296.563 579.637 296.196 578.086 296.185C576.973 296.173 575.831 296.344 574.659 296.7C573.487 297.043 572.522 297.487 571.765 298.031L567.646 297.534L569.847 279.636H588.739V283.543H573.54L572.262 294.267H572.475C573.221 293.675 574.156 293.184 575.281 292.793C576.405 292.403 577.577 292.207 578.796 292.207C581.022 292.207 583.004 292.74 584.744 293.805C586.496 294.859 587.869 296.303 588.864 298.138C589.87 299.973 590.373 302.068 590.373 304.423C590.373 306.743 589.852 308.815 588.81 310.638C587.781 312.449 586.36 313.881 584.549 314.935C582.738 315.976 580.678 316.497 578.37 316.497Z" fill="#262626"/>
<path d="M673.764 316V312.804L685.767 299.665C687.176 298.126 688.336 296.788 689.247 295.652C690.159 294.504 690.833 293.427 691.271 292.42C691.721 291.402 691.946 290.337 691.946 289.224C691.946 287.946 691.638 286.839 691.023 285.904C690.419 284.969 689.59 284.247 688.537 283.738C687.483 283.229 686.3 282.974 684.986 282.974C683.589 282.974 682.37 283.264 681.328 283.844C680.298 284.413 679.499 285.212 678.931 286.241C678.375 287.271 678.097 288.479 678.097 289.864H673.906C673.906 287.733 674.397 285.863 675.38 284.253C676.362 282.643 677.7 281.388 679.393 280.489C681.097 279.589 683.009 279.139 685.128 279.139C687.259 279.139 689.147 279.589 690.792 280.489C692.437 281.388 693.728 282.602 694.663 284.129C695.598 285.656 696.065 287.354 696.065 289.224C696.065 290.562 695.823 291.87 695.337 293.148C694.864 294.415 694.035 295.83 692.852 297.392C691.68 298.943 690.052 300.837 687.969 303.074L679.801 311.81V312.094H696.705V316H673.764ZM715.898 316.497C713.223 316.497 710.945 315.769 709.062 314.313C707.18 312.845 705.742 310.721 704.748 307.939C703.754 305.145 703.256 301.772 703.256 297.818C703.256 293.888 703.754 290.532 704.748 287.751C705.754 284.957 707.198 282.826 709.08 281.359C710.974 279.879 713.247 279.139 715.898 279.139C718.55 279.139 720.817 279.879 722.699 281.359C724.593 282.826 726.037 284.957 727.031 287.751C728.037 290.532 728.54 293.888 728.54 297.818C728.54 301.772 728.043 305.145 727.049 307.939C726.055 310.721 724.616 312.845 722.734 314.313C720.852 315.769 718.574 316.497 715.898 316.497ZM715.898 312.591C718.55 312.591 720.61 311.312 722.077 308.756C723.545 306.199 724.279 302.553 724.279 297.818C724.279 294.67 723.942 291.988 723.267 289.775C722.604 287.561 721.645 285.875 720.391 284.714C719.148 283.554 717.65 282.974 715.898 282.974C713.271 282.974 711.217 284.271 709.737 286.863C708.258 289.443 707.518 293.095 707.518 297.818C707.518 300.967 707.849 303.642 708.512 305.844C709.175 308.045 710.128 309.72 711.371 310.869C712.625 312.017 714.135 312.591 715.898 312.591Z" fill="#262626"/>
<path d="M803.764 316V312.804L815.767 299.665C817.176 298.126 818.336 296.788 819.247 295.652C820.159 294.504 820.833 293.427 821.271 292.42C821.721 291.402 821.946 290.337 821.946 289.224C821.946 287.946 821.638 286.839 821.023 285.904C820.419 284.969 819.59 284.247 818.537 283.738C817.483 283.229 816.3 282.974 814.986 282.974C813.589 282.974 812.37 283.264 811.328 283.844C810.298 284.413 809.499 285.212 808.931 286.241C808.375 287.271 808.097 288.479 808.097 289.864H803.906C803.906 287.733 804.397 285.863 805.38 284.253C806.362 282.643 807.7 281.388 809.393 280.489C811.097 279.589 813.009 279.139 815.128 279.139C817.259 279.139 819.147 279.589 820.792 280.489C822.437 281.388 823.728 282.602 824.663 284.129C825.598 285.656 826.065 287.354 826.065 289.224C826.065 290.562 825.823 291.87 825.337 293.148C824.864 294.415 824.035 295.83 822.852 297.392C821.68 298.943 820.052 300.837 817.969 303.074L809.801 311.81V312.094H826.705V316H803.764ZM845.401 316.497C843.318 316.497 841.442 316.083 839.773 315.254C838.104 314.426 836.766 313.289 835.76 311.845C834.754 310.401 834.203 308.756 834.109 306.909H838.37C838.536 308.554 839.281 309.916 840.607 310.993C841.945 312.058 843.543 312.591 845.401 312.591C846.893 312.591 848.219 312.242 849.379 311.543C850.55 310.845 851.468 309.886 852.131 308.667C852.805 307.436 853.143 306.045 853.143 304.494C853.143 302.908 852.794 301.494 852.095 300.251C851.409 298.996 850.462 298.008 849.254 297.286C848.047 296.563 846.668 296.196 845.117 296.185C844.004 296.173 842.862 296.344 841.69 296.7C840.518 297.043 839.554 297.487 838.796 298.031L834.677 297.534L836.879 279.636H855.771V283.543H840.572L839.293 294.267H839.506C840.252 293.675 841.187 293.184 842.312 292.793C843.436 292.403 844.608 292.207 845.827 292.207C848.053 292.207 850.036 292.74 851.776 293.805C853.527 294.859 854.901 296.303 855.895 298.138C856.901 299.973 857.404 302.068 857.404 304.423C857.404 306.743 856.883 308.815 855.842 310.638C854.812 312.449 853.391 313.881 851.58 314.935C849.769 315.976 847.71 316.497 845.401 316.497Z" fill="#262626"/>
<path d="M8 529C8 529 82.8022 466.191 151.801 448.47C200.227 436.032 237.419 451.408 283.802 436.044C322.996 423.061 323.925 393.831 366.395 386.34C415.397 377.696 440.325 415.586 490.654 411.192C593.302 402.229 558.065 315.91 596.108 253.477C625.673 204.956 604.796 161.207 666.902 128.021C713.429 103.16 773.927 135.252 814.39 98.3901C854.852 61.5285 877.538 40.8616 918 4" stroke="#262626" stroke-width="10"/>
<path d="M8 529C8 529 82.8022 466.191 151.801 448.47C200.227 436.032 237.419 451.408 283.802 436.044C322.996 423.061 323.924 393.831 366.395 386.34C415.397 377.696 440.325 415.586 490.654 411.192C593.302 402.229 558.065 315.91 596.108 253.477" stroke="url(#paint8_linear_69_159)" stroke-width="10"/>
<path d="M594 273C602.837 273 610 265.837 610 257C610 248.163 602.837 241 594 241C585.163 241 578 248.163 578 257C578 265.837 585.163 273 594 273Z" fill="#9C27B0"/>
<path d="M594 284.5C609.188 284.5 621.5 272.188 621.5 257C621.5 241.812 609.188 229.5 594 229.5C578.812 229.5 566.5 241.812 566.5 257C566.5 272.188 578.812 284.5 594 284.5Z" stroke="#9C27B0" stroke-opacity="0.3" stroke-width="23"/>
</g>
<defs>
<filter id="filter0_d_69_159" x="0" y="0" width="926" height="541" filterUnits="userSpaceOnUse" color-interpolation-filters="sRGB">
<feFlood flood-opacity="0" result="BackgroundImageFix"/>
<feColorMatrix in="SourceAlpha" type="matrix" values="0 0 0 0 0 0 0 0 0 0 0 0 0 0 0 0 0 0 127 0" result="hardAlpha"/>
<feOffset dy="4"/>
<feGaussianBlur stdDeviation="2"/>
<feComposite in2="hardAlpha" operator="out"/>
<feColorMatrix type="matrix" values="0 0 0 0 0 0 0 0 0 0 0 0 0 0 0 0 0 0 0.25 0"/>
<feBlend mode="normal" in2="BackgroundImageFix" result="effect1_dropShadow_69_159"/>
<feBlend mode="normal" in="SourceGraphic" in2="effect1_dropShadow_69_159" result="shape"/>
</filter>
<linearGradient id="paint0_linear_69_159" x1="8.50137" y1="4" x2="8.50139" y2="529" gradientUnits="userSpaceOnUse">
<stop stop-color="#000008"/>
<stop offset="0.355" stop-color="#525252"/>
</linearGradient>
<linearGradient id="paint1_linear_69_159" x1="-nan" y1="-nan" x2="-nan" y2="-nan" gradientUnits="userSpaceOnUse">
<stop stop-color="#000008"/>
<stop offset="0.355" stop-color="#525252"/>
</linearGradient>
<linearGradient id="paint2_linear_69_159" x1="-nan" y1="-nan" x2="-nan" y2="-nan" gradientUnits="userSpaceOnUse">
<stop stop-color="#000008"/>
<stop offset="0.355" stop-color="#525252"/>
</linearGradient>
<linearGradient id="paint3_linear_69_159" x1="-nan" y1="-nan" x2="-nan" y2="-nan" gradientUnits="userSpaceOnUse">
<stop stop-color="#000008"/>
<stop offset="0.355" stop-color="#525252"/>
</linearGradient>
<linearGradient id="paint4_linear_69_159" x1="-nan" y1="-nan" x2="-nan" y2="-nan" gradientUnits="userSpaceOnUse">
<stop stop-color="#000008"/>
<stop offset="0.355" stop-color="#525252"/>
</linearGradient>
<linearGradient id="paint5_linear_69_159" x1="-nan" y1="-nan" x2="-nan" y2="-nan" gradientUnits="userSpaceOnUse">
<stop stop-color="#000008"/>
<stop offset="0.355" stop-color="#525252"/>
</linearGradient>
<linearGradient id="paint6_linear_69_159" x1="-nan" y1="-nan" x2="-nan" y2="-nan" gradientUnits="userSpaceOnUse">
<stop stop-color="#000008"/>
<stop offset="0.355" stop-color="#525252"/>
</linearGradient>
<linearGradient id="paint7_linear_69_159" x1="-nan" y1="-nan" x2="-nan" y2="-nan" gradientUnits="userSpaceOnUse">
<stop stop-color="#000008"/>
<stop offset="0.355" stop-color="#525252"/>
</linearGradient>
<linearGradient id="paint8_linear_69_159" x1="918" y1="4.00013" x2="15" y2="523.5" gradientUnits="userSpaceOnUse">
<stop stop-color="#262626"/>
<stop offset="0.51" stop-color="#9C27B0"/>
<stop offset="1" stop-color="#262626"/>
</linearGradient>
<clipPath id="clip0_69_159">
<rect width="918" height="533" fill="white" transform="translate(4)"/>
</clipPath>
</defs>
</svg>
