<svg width="1381" height="817" viewBox="0 0 1381 817" fill="none" xmlns="http://www.w3.org/2000/svg">
<g clip-path="url(#clip0_69_179)">
<path d="M133 601H1245" stroke="url(#paint0_linear_69_179)" stroke-opacity="0.8" stroke-width="4" stroke-dasharray="15 15"/>
<path d="M231 708H1343" stroke="url(#paint1_linear_69_179)" stroke-opacity="0.8" stroke-width="4" stroke-dasharray="15 15"/>
<path d="M269 815H1381" stroke="url(#paint2_linear_69_179)" stroke-opacity="0.8" stroke-width="4" stroke-dasharray="15 15"/>
<path d="M1194 2H181C140.683 2 108 34.6832 108 75V289C108 329.317 140.683 362 181 362H1194C1234.32 362 1267 329.317 1267 289V75C1267 34.6832 1234.32 2 1194 2Z" fill="#171717" stroke="#262626" stroke-width="4"/>
<path d="M506 63.0977H223C202.013 63.0977 185 80.1108 185 101.098V279.903C185 300.889 202.013 317.903 223 317.903H506C526.987 317.903 544 300.889 544 279.903V101.098C544 80.1108 526.987 63.0977 506 63.0977Z" fill="#020202"/>
<path d="M414.963 189.555C414.783 188.671 414.356 187.856 413.733 187.204C413.109 186.552 412.313 186.091 411.438 185.873L378.677 177.678L390.793 149.401C391.214 148.42 391.293 147.326 391.018 146.294C390.744 145.262 390.132 144.352 389.279 143.709C388.427 143.062 387.382 142.722 386.313 142.743C385.244 142.764 384.213 143.144 383.386 143.823L330.854 186.804C330.169 187.364 329.653 188.104 329.364 188.941C329.075 189.778 329.024 190.678 329.218 191.542C329.411 192.406 329.84 193.2 330.458 193.834C331.076 194.467 331.858 194.917 332.717 195.132L364.804 203.16L348.83 231.117C348.416 231.843 348.2 232.665 348.204 233.5C348.207 234.336 348.43 235.156 348.849 235.879C349.269 236.601 349.871 237.201 350.595 237.618C351.319 238.036 352.139 238.256 352.975 238.256C354.008 238.256 355.014 237.921 355.84 237.301L413.148 194.321C413.87 193.779 414.423 193.044 414.745 192.2C415.066 191.357 415.141 190.439 414.963 189.555Z" fill="#3B82F6"/>
<path d="M638.807 75.6364V112H634.403V75.6364H638.807ZM676.471 75.6364V112H672.21L652.394 83.4489H652.039V112H647.636V75.6364H651.897L671.784 104.259H672.139V75.6364H676.471ZM699.345 112V75.6364H711.632C714.473 75.6364 716.805 76.1217 718.627 77.0923C720.45 78.0511 721.8 79.371 722.676 81.0518C723.552 82.7327 723.99 84.6444 723.99 86.7869C723.99 88.9295 723.552 90.8293 722.676 92.4865C721.8 94.1437 720.456 95.4458 718.645 96.3928C716.834 97.3279 714.52 97.7955 711.703 97.7955H701.76V93.8182H711.561C713.502 93.8182 715.065 93.5341 716.248 92.9659C717.444 92.3977 718.308 91.5928 718.841 90.5511C719.385 89.4976 719.657 88.2429 719.657 86.7869C719.657 85.331 719.385 84.0585 718.841 82.9695C718.296 81.8804 717.426 81.04 716.23 80.4482C715.035 79.8445 713.455 79.5426 711.49 79.5426H703.748V112H699.345ZM716.461 95.6648L725.41 112H720.297L711.49 95.6648H716.461ZM731.327 112V75.6364H753.273V79.5426H735.731V91.8295H752.137V95.7358H735.731V108.094H753.557V112H731.327ZM762.702 75.6364L773.497 106.247H773.923L784.719 75.6364H789.335L775.983 112H771.437L758.085 75.6364H762.702ZM799.403 75.6364V112H794.999V75.6364H799.403ZM808.232 112V75.6364H830.178V79.5426H812.635V91.8295H829.041V95.7358H812.635V108.094H830.462V112H808.232ZM844.719 112L834.776 75.6364H839.251L846.85 105.253H847.205L854.947 75.6364H859.918L867.66 105.253H868.015L875.614 75.6364H880.089L870.146 112H865.6L857.575 83.0227H857.29L849.265 112H844.719Z" fill="#404040"/>
<path d="M599.5 113C610.27 113 619 104.27 619 93.5C619 82.7304 610.27 74 599.5 74C588.73 74 580 82.7304 580 93.5C580 104.27 588.73 113 599.5 113Z" fill="#404040"/>
<g filter="url(#filter0_d_69_179)">
<path d="M1268 106H107C66.6832 106 34 138.683 34 179V439C34 479.317 66.6832 512 107 512H1268C1308.32 512 1341 479.317 1341 439V179C1341 138.683 1308.32 106 1268 106Z" fill="#171717" stroke="#262626" stroke-width="4"/>
<path d="M557.384 440V404.664H545.68V400.8H573.792V404.664H562.088V440H557.384ZM586.879 440.672C584.266 440.672 581.914 440.075 579.823 438.88C577.733 437.648 576.09 435.931 574.895 433.728C573.701 431.488 573.103 428.893 573.103 425.944C573.103 422.92 573.701 420.307 574.895 418.104C576.127 415.864 577.789 414.147 579.879 412.952C582.007 411.72 584.378 411.104 586.991 411.104C589.679 411.104 592.05 411.72 594.103 412.952C596.194 414.147 597.837 415.864 599.031 418.104C600.263 420.307 600.879 422.901 600.879 425.888C600.879 428.875 600.263 431.488 599.031 433.728C597.799 435.931 596.138 437.648 594.047 438.88C591.957 440.075 589.567 440.672 586.879 440.672ZM586.935 436.64C588.541 436.64 590.034 436.248 591.415 435.464C592.797 434.643 593.917 433.429 594.775 431.824C595.634 430.219 596.063 428.24 596.063 425.888C596.063 423.499 595.634 421.52 594.775 419.952C593.954 418.347 592.853 417.152 591.471 416.368C590.127 415.547 588.634 415.136 586.991 415.136C585.423 415.136 583.93 415.547 582.511 416.368C581.13 417.152 580.01 418.347 579.151 419.952C578.33 421.52 577.919 423.499 577.919 425.888C577.919 428.24 578.33 430.219 579.151 431.824C580.01 433.429 581.111 434.643 582.455 435.464C583.837 436.248 585.33 436.64 586.935 436.64ZM619.907 440.672C617.181 440.672 614.792 440.037 612.739 438.768C610.685 437.461 609.099 435.688 607.979 433.448C606.859 431.208 606.299 428.669 606.299 425.832C606.299 422.995 606.859 420.475 607.979 418.272C609.099 416.032 610.685 414.277 612.739 413.008C614.829 411.739 617.237 411.104 619.963 411.104C622.277 411.104 624.293 411.571 626.011 412.504C627.765 413.437 629.109 414.744 630.043 416.424V399.68H634.747V440H630.491L630.099 435.352C629.501 436.285 628.736 437.163 627.803 437.984C626.869 438.768 625.749 439.421 624.443 439.944C623.136 440.429 621.624 440.672 619.907 440.672ZM620.467 436.584C622.333 436.584 623.976 436.136 625.395 435.24C626.813 434.344 627.915 433.112 628.699 431.544C629.483 429.939 629.875 428.053 629.875 425.888C629.875 423.76 629.483 421.893 628.699 420.288C627.915 418.683 626.813 417.432 625.395 416.536C623.976 415.64 622.333 415.192 620.467 415.192C618.637 415.192 617.013 415.64 615.595 416.536C614.176 417.432 613.075 418.683 612.291 420.288C611.507 421.893 611.115 423.76 611.115 425.888C611.115 428.053 611.507 429.939 612.291 431.544C613.075 433.112 614.176 434.344 615.595 435.24C617.013 436.136 618.637 436.584 620.467 436.584ZM651.768 440.672C649.491 440.672 647.587 440.28 646.056 439.496C644.525 438.675 643.387 437.611 642.64 436.304C641.893 434.96 641.52 433.504 641.52 431.936C641.52 430.032 642.005 428.427 642.976 427.12C643.984 425.776 645.384 424.768 647.176 424.096C649.005 423.387 651.152 423.032 653.616 423.032H661.064C661.064 421.277 660.784 419.821 660.224 418.664C659.701 417.469 658.917 416.573 657.872 415.976C656.864 415.379 655.595 415.08 654.064 415.08C652.272 415.08 650.723 415.528 649.416 416.424C648.109 417.32 647.307 418.645 647.008 420.4H642.192C642.416 418.384 643.088 416.704 644.208 415.36C645.365 413.979 646.821 412.933 648.576 412.224C650.331 411.477 652.16 411.104 654.064 411.104C656.677 411.104 658.843 411.589 660.56 412.56C662.315 413.493 663.621 414.819 664.48 416.536C665.339 418.216 665.768 420.213 665.768 422.528V440H661.568L661.288 435.016C660.915 435.8 660.429 436.547 659.832 437.256C659.272 437.928 658.6 438.525 657.816 439.048C657.032 439.533 656.136 439.925 655.128 440.224C654.157 440.523 653.037 440.672 651.768 440.672ZM652.496 436.696C653.803 436.696 654.979 436.435 656.024 435.912C657.107 435.352 658.021 434.605 658.768 433.672C659.515 432.701 660.075 431.637 660.448 430.48C660.859 429.323 661.064 428.109 661.064 426.84V426.672H654.008C652.179 426.672 650.704 426.896 649.584 427.344C648.464 427.755 647.661 428.352 647.176 429.136C646.691 429.883 646.448 430.741 646.448 431.712C646.448 432.72 646.672 433.597 647.12 434.344C647.605 435.091 648.296 435.669 649.192 436.08C650.125 436.491 651.227 436.696 652.496 436.696ZM675.305 452.32L682.193 436.864H680.569L669.481 411.776H674.577L683.761 433.336L693.393 411.776H698.265L680.233 452.32H675.305ZM696.255 446.888L699.503 434.512H704.375L699.503 446.888H696.255ZM729.59 440V406.064L722.87 407.744V404.384L731.158 400.8H734.35V440H729.59ZM757.731 440.672C754.297 440.672 751.329 439.832 748.827 438.152C746.363 436.435 744.478 434.064 743.171 431.04C741.865 427.979 741.211 424.432 741.211 420.4C741.211 416.368 741.865 412.84 743.171 409.816C744.478 406.755 746.363 404.384 748.827 402.704C751.329 400.987 754.297 400.128 757.731 400.128C761.166 400.128 764.097 400.987 766.523 402.704C768.987 404.384 770.873 406.755 772.179 409.816C773.486 412.84 774.139 416.368 774.139 420.4C774.139 424.432 773.486 427.979 772.179 431.04C770.873 434.064 768.987 436.435 766.523 438.152C764.097 439.832 761.166 440.672 757.731 440.672ZM757.675 436.528C759.915 436.528 761.913 435.893 763.667 434.624C765.422 433.317 766.803 431.469 767.811 429.08C768.819 426.653 769.323 423.76 769.323 420.4C769.323 417.04 768.819 414.165 767.811 411.776C766.803 409.349 765.422 407.501 763.667 406.232C761.913 404.963 759.915 404.328 757.675 404.328C755.435 404.328 753.419 404.963 751.627 406.232C749.873 407.501 748.491 409.349 747.483 411.776C746.513 414.165 746.027 417.04 746.027 420.4C746.027 423.76 746.513 426.653 747.483 429.08C748.491 431.469 749.873 433.317 751.627 434.624C753.419 435.893 755.435 436.528 757.675 436.528ZM782.405 440.28C781.471 440.28 780.687 439.981 780.053 439.384C779.455 438.749 779.157 437.984 779.157 437.088C779.157 436.192 779.455 435.445 780.053 434.848C780.687 434.213 781.471 433.896 782.405 433.896C783.338 433.896 784.103 434.213 784.701 434.848C785.298 435.445 785.597 436.192 785.597 437.088C785.597 437.984 785.298 438.749 784.701 439.384C784.103 439.981 783.338 440.28 782.405 440.28ZM782.405 417.488C781.471 417.488 780.687 417.189 780.053 416.592C779.455 415.957 779.157 415.192 779.157 414.296C779.157 413.4 779.455 412.653 780.053 412.056C780.687 411.421 781.471 411.104 782.405 411.104C783.338 411.104 784.103 411.421 784.701 412.056C785.298 412.653 785.597 413.4 785.597 414.296C785.597 415.192 785.298 415.957 784.701 416.592C784.103 417.189 783.338 417.488 782.405 417.488ZM791.709 440V436.696C794.36 434.605 796.88 432.496 799.269 430.368C801.696 428.24 803.842 426.131 805.709 424.04C807.576 421.912 809.032 419.84 810.077 417.824C811.16 415.808 811.701 413.867 811.701 412C811.701 410.619 811.458 409.349 810.973 408.192C810.488 406.997 809.704 406.027 808.621 405.28C807.576 404.533 806.157 404.16 804.365 404.16C802.61 404.16 801.154 404.552 799.997 405.336C798.84 406.083 797.962 407.091 797.365 408.36C796.805 409.592 796.525 410.955 796.525 412.448H791.989C792.026 409.872 792.568 407.669 793.613 405.84C794.696 403.973 796.17 402.555 798.037 401.584C799.904 400.613 802.032 400.128 804.421 400.128C806.773 400.128 808.845 400.576 810.637 401.472C812.429 402.331 813.829 403.619 814.837 405.336C815.882 407.053 816.405 409.219 816.405 411.832C816.405 413.661 816.013 415.491 815.229 417.32C814.482 419.149 813.474 420.941 812.205 422.696C810.936 424.413 809.517 426.075 807.949 427.68C806.418 429.285 804.832 430.797 803.189 432.216C801.584 433.635 800.072 434.923 798.653 436.08H817.749V440H791.709ZM837.807 440.672C835.119 440.672 832.785 440.187 830.807 439.216C828.865 438.245 827.316 436.92 826.159 435.24C825.039 433.56 824.329 431.675 824.031 429.584H828.623C829.071 431.675 830.097 433.373 831.703 434.68C833.308 435.987 835.361 436.64 837.863 436.64C839.729 436.64 841.316 436.211 842.623 435.352C843.967 434.493 844.993 433.317 845.703 431.824C846.449 430.331 846.823 428.669 846.823 426.84C846.823 424.936 846.449 423.256 845.703 421.8C844.956 420.344 843.929 419.224 842.623 418.44C841.316 417.619 839.785 417.208 838.031 417.208C835.903 417.208 834.092 417.675 832.599 418.608C831.105 419.541 829.985 420.736 829.239 422.192H824.703L827.951 400.8H848.671V404.888H831.591L829.407 416.928C830.34 415.845 831.572 414.968 833.103 414.296C834.671 413.587 836.481 413.232 838.535 413.232C840.476 413.232 842.231 413.568 843.799 414.24C845.367 414.912 846.711 415.864 847.831 417.096C848.951 418.328 849.809 419.765 850.407 421.408C851.041 423.051 851.359 424.843 851.359 426.784C851.359 428.688 851.041 430.48 850.407 432.16C849.809 433.803 848.932 435.277 847.775 436.584C846.617 437.853 845.199 438.861 843.519 439.608C841.839 440.317 839.935 440.672 837.807 440.672Z" fill="#737373"/>
<path d="M633.239 175.636V212H628.977L609.162 183.449H608.807V212H604.403V175.636H608.665L628.551 204.259H628.906V175.636H633.239ZM642.05 212V175.636H663.996V179.543H646.453V191.83H662.86V195.736H646.453V208.094H664.28V212H642.05ZM678.538 212L668.595 175.636H673.069L680.669 205.253H681.024L688.765 175.636H693.737L701.478 205.253H701.833L709.433 175.636H713.907L703.964 212H699.419L691.393 183.023H691.109L683.083 212H678.538Z" fill="#9C27B0"/>
<path d="M563.5 213C574.27 213 583 204.27 583 193.5C583 182.73 574.27 174 563.5 174C552.73 174 544 182.73 544 193.5C544 204.27 552.73 213 563.5 213Z" fill="#9C27B0"/>
<path d="M437 174H150C124.595 174 104 194.595 104 220V397C104 422.405 124.595 443 150 443H437C462.405 443 483 422.405 483 397V220C483 194.595 462.405 174 437 174Z" fill="#020202"/>
<path d="M346.774 307.502C346.584 306.569 346.134 305.708 345.476 305.02C344.817 304.332 343.977 303.845 343.053 303.615L308.468 294.963L321.258 265.111C321.702 264.075 321.786 262.92 321.496 261.831C321.206 260.742 320.56 259.781 319.66 259.102C318.76 258.42 317.657 258.061 316.528 258.082C315.4 258.104 314.311 258.506 313.439 259.223L257.98 304.598C257.257 305.19 256.712 305.971 256.407 306.854C256.102 307.738 256.048 308.688 256.252 309.6C256.456 310.512 256.91 311.35 257.562 312.019C258.214 312.688 259.04 313.163 259.947 313.39L293.822 321.866L276.957 351.379C276.52 352.146 276.293 353.014 276.296 353.896C276.3 354.778 276.535 355.644 276.978 356.407C277.421 357.169 278.056 357.803 278.82 358.243C279.585 358.684 280.451 358.916 281.333 358.917C282.424 358.917 283.486 358.563 284.358 357.908L344.858 312.533C345.621 311.961 346.205 311.185 346.544 310.295C346.883 309.404 346.963 308.436 346.774 307.502Z" fill="#9C27B0"/>
</g>
<path d="M614.466 274.182V344H601.716L571.341 300.057H570.83V344H556.068V274.182H569.023L599.159 318.091H599.773V274.182H614.466ZM650.253 345.023C644.866 345.023 640.23 343.932 636.344 341.75C632.48 339.545 629.503 336.432 627.412 332.409C625.321 328.364 624.276 323.58 624.276 318.057C624.276 312.67 625.321 307.943 627.412 303.875C629.503 299.807 632.446 296.636 636.241 294.364C640.06 292.091 644.537 290.955 649.673 290.955C653.128 290.955 656.344 291.511 659.321 292.625C662.321 293.716 664.935 295.364 667.162 297.568C669.412 299.773 671.162 302.545 672.412 305.886C673.662 309.205 674.287 313.091 674.287 317.545V321.534H630.071V312.534H660.616C660.616 310.443 660.162 308.591 659.253 306.977C658.344 305.364 657.082 304.102 655.469 303.193C653.878 302.261 652.026 301.795 649.912 301.795C647.707 301.795 645.753 302.307 644.048 303.33C642.366 304.33 641.048 305.682 640.094 307.386C639.139 309.068 638.651 310.943 638.628 313.011V321.568C638.628 324.159 639.105 326.398 640.06 328.284C641.037 330.17 642.412 331.625 644.185 332.648C645.957 333.67 648.06 334.182 650.491 334.182C652.105 334.182 653.582 333.955 654.923 333.5C656.264 333.045 657.412 332.364 658.366 331.455C659.321 330.545 660.048 329.432 660.548 328.114L673.98 329C673.298 332.227 671.901 335.045 669.787 337.455C667.696 339.841 664.991 341.705 661.673 343.045C658.378 344.364 654.571 345.023 650.253 345.023ZM694.963 291.636L704.577 309.943L714.429 291.636H729.327L714.156 317.818L729.736 344H714.906L704.577 325.898L694.418 344H679.418L694.963 317.818L679.963 291.636H694.963ZM765.804 291.636V302.545H734.27V291.636H765.804ZM741.429 279.091H755.952V327.909C755.952 329.25 756.156 330.295 756.565 331.045C756.974 331.773 757.543 332.284 758.27 332.58C759.02 332.875 759.884 333.023 760.861 333.023C761.543 333.023 762.224 332.966 762.906 332.852C763.588 332.716 764.111 332.614 764.474 332.545L766.759 343.352C766.031 343.58 765.009 343.841 763.69 344.136C762.372 344.455 760.77 344.648 758.884 344.716C755.384 344.852 752.315 344.386 749.679 343.318C747.065 342.25 745.031 340.591 743.577 338.341C742.122 336.091 741.406 333.25 741.429 329.818V279.091ZM783.753 344.886C781.503 344.886 779.571 344.091 777.957 342.5C776.366 340.886 775.571 338.955 775.571 336.705C775.571 334.477 776.366 332.568 777.957 330.977C779.571 329.386 781.503 328.591 783.753 328.591C785.935 328.591 787.844 329.386 789.48 330.977C791.116 332.568 791.935 334.477 791.935 336.705C791.935 338.205 791.548 339.58 790.776 340.83C790.026 342.057 789.037 343.045 787.81 343.795C786.582 344.523 785.23 344.886 783.753 344.886ZM832.085 274.182H846.676V322.864C846.676 327.364 845.665 331.273 843.642 334.591C841.642 337.909 838.858 340.466 835.29 342.261C831.722 344.057 827.574 344.955 822.847 344.955C818.642 344.955 814.824 344.216 811.392 342.739C807.983 341.239 805.278 338.966 803.278 335.92C801.278 332.852 800.29 329 800.312 324.364H815.006C815.051 326.205 815.426 327.784 816.131 329.102C816.858 330.398 817.847 331.398 819.097 332.102C820.369 332.784 821.869 333.125 823.597 333.125C825.415 333.125 826.949 332.739 828.199 331.966C829.472 331.17 830.438 330.011 831.097 328.489C831.756 326.966 832.085 325.091 832.085 322.864V274.182ZM902.176 306.568L888.881 307.386C888.653 306.25 888.165 305.227 887.415 304.318C886.665 303.386 885.676 302.648 884.449 302.102C883.244 301.534 881.801 301.25 880.119 301.25C877.869 301.25 875.972 301.727 874.426 302.682C872.881 303.614 872.108 304.864 872.108 306.432C872.108 307.682 872.608 308.739 873.608 309.602C874.608 310.466 876.324 311.159 878.756 311.682L888.233 313.591C893.324 314.636 897.119 316.318 899.619 318.636C902.119 320.955 903.369 324 903.369 327.773C903.369 331.205 902.358 334.216 900.335 336.807C898.335 339.398 895.585 341.42 892.085 342.875C888.608 344.307 884.597 345.023 880.051 345.023C873.119 345.023 867.597 343.58 863.483 340.693C859.392 337.784 856.994 333.83 856.29 328.83L870.574 328.08C871.006 330.193 872.051 331.807 873.71 332.92C875.369 334.011 877.494 334.557 880.085 334.557C882.631 334.557 884.676 334.068 886.222 333.091C887.79 332.091 888.585 330.807 888.608 329.239C888.585 327.92 888.028 326.841 886.938 326C885.847 325.136 884.165 324.477 881.892 324.023L872.824 322.216C867.71 321.193 863.903 319.42 861.403 316.898C858.926 314.375 857.688 311.159 857.688 307.25C857.688 303.886 858.597 300.989 860.415 298.557C862.256 296.125 864.835 294.25 868.153 292.932C871.494 291.614 875.403 290.955 879.881 290.955C886.494 290.955 891.699 292.352 895.494 295.148C899.313 297.943 901.54 301.75 902.176 306.568Z" fill="white"/>
</g>
<defs>
<filter id="filter0_d_69_179" x="0.9" y="54.9" width="1373.2" height="472.2" filterUnits="userSpaceOnUse" color-interpolation-filters="sRGB">
<feFlood flood-opacity="0" result="BackgroundImageFix"/>
<feColorMatrix in="SourceAlpha" type="matrix" values="0 0 0 0 0 0 0 0 0 0 0 0 0 0 0 0 0 0 127 0" result="hardAlpha"/>
<feOffset dy="-18"/>
<feGaussianBlur stdDeviation="15.55"/>
<feComposite in2="hardAlpha" operator="out"/>
<feColorMatrix type="matrix" values="0 0 0 0 0 0 0 0 0 0 0 0 0 0 0 0 0 0 0.65 0"/>
<feBlend mode="normal" in2="BackgroundImageFix" result="effect1_dropShadow_69_179"/>
<feBlend mode="normal" in="SourceGraphic" in2="effect1_dropShadow_69_179" result="shape"/>
</filter>
<linearGradient id="paint0_linear_69_179" x1="-nan" y1="-nan" x2="-nan" y2="-nan" gradientUnits="userSpaceOnUse">
<stop stop-color="#171717"/>
<stop offset="1" stop-color="#8C8C8C"/>
</linearGradient>
<linearGradient id="paint1_linear_69_179" x1="-nan" y1="-nan" x2="-nan" y2="-nan" gradientUnits="userSpaceOnUse">
<stop stop-color="#171717"/>
<stop offset="1" stop-color="#8C8C8C"/>
</linearGradient>
<linearGradient id="paint2_linear_69_179" x1="-nan" y1="-nan" x2="-nan" y2="-nan" gradientUnits="userSpaceOnUse">
<stop stop-color="#171717"/>
<stop offset="1" stop-color="#8C8C8C"/>
</linearGradient>
<clipPath id="clip0_69_179">
<rect width="1381" height="817" fill="white"/>
</clipPath>
</defs>
</svg>
