<svg width="1126" height="422" viewBox="0 0 1126 422" fill="none" xmlns="http://www.w3.org/2000/svg">
<g clip-path="url(#clip0_70_197)">
<path d="M0 18C0 8.05888 8.05888 0 18 0H1126V422H0V18Z" fill="white" fill-opacity="0.01"/>
<mask id="mask0_70_197" style="mask-type:luminance" maskUnits="userSpaceOnUse" x="0" y="0" width="1126" height="422">
<path d="M0 18C0 8.05888 8.05888 0 18 0H1126V422H0V18Z" fill="white"/>
</mask>
<g mask="url(#mask0_70_197)">
<path d="M-2 18C-2 6.95431 6.95431 -2 18 -2H1126V2H18C9.16344 2 2 9.16344 2 18H-2ZM-2 422V18C-2 6.95431 6.95431 -2 18 -2V2C9.16344 2 2 9.16344 2 18V422H-2Z" fill="white" fill-opacity="0.16"/>
</g>
<path d="M166 27H34C26.8203 27 21 32.8203 21 40V72C21 79.1797 26.8203 85 34 85H166C173.18 85 179 79.1797 179 72V40C179 32.8203 173.18 27 166 27Z" fill="white" fill-opacity="0.21"/>
<path d="M47.214 64.9999V48.5939H41.78V46.7999H54.832V48.5939H49.398V64.9999H47.214ZM57.3942 64.9999V46.2799H59.5782V54.1059C60.0116 53.3259 60.6182 52.7106 61.3982 52.2599C62.1956 51.8092 63.0622 51.5839 63.9982 51.5839C65.0036 51.5839 65.8789 51.7919 66.6242 52.2079C67.3696 52.6066 67.9416 53.2219 68.3402 54.0539C68.7389 54.8859 68.9382 55.9346 68.9382 57.1999V64.9999H66.7802V57.4339C66.7802 56.1166 66.5029 55.1286 65.9482 54.4699C65.3936 53.7939 64.5876 53.4559 63.5302 53.4559C62.7849 53.4559 62.1089 53.6379 61.5022 54.0019C60.9129 54.3659 60.4449 54.8859 60.0982 55.5619C59.7516 56.2379 59.5782 57.0699 59.5782 58.0579V64.9999H57.3942ZM72.5573 64.9999V51.8959H74.7413V64.9999H72.5573ZM73.6493 49.1139C73.216 49.1139 72.852 48.9752 72.5573 48.6979C72.28 48.4032 72.1413 48.0392 72.1413 47.6059C72.1413 47.1726 72.28 46.8259 72.5573 46.5659C72.852 46.2886 73.216 46.1499 73.6493 46.1499C74.0653 46.1499 74.4206 46.2886 74.7153 46.5659C75.01 46.8259 75.1573 47.1726 75.1573 47.6059C75.1573 48.0392 75.01 48.4032 74.7153 48.6979C74.4206 48.9752 74.0653 49.1139 73.6493 49.1139ZM83.5354 65.3119C82.4434 65.3119 81.4901 65.1299 80.6754 64.7659C79.8781 64.4019 79.2367 63.8992 78.7514 63.2579C78.2834 62.5992 77.9974 61.8279 77.8934 60.9439H80.1294C80.2161 61.3946 80.3981 61.8106 80.6754 62.1919C80.9527 62.5732 81.3254 62.8852 81.7934 63.1279C82.2787 63.3532 82.8681 63.4659 83.5614 63.4659C84.1681 63.4659 84.6707 63.3792 85.0694 63.2059C85.4681 63.0152 85.7627 62.7639 85.9534 62.4519C86.1614 62.1399 86.2654 61.8019 86.2654 61.4379C86.2654 60.9006 86.1354 60.4932 85.8754 60.2159C85.6327 59.9386 85.2687 59.7219 84.7834 59.5659C84.2981 59.3926 83.7087 59.2452 83.0154 59.1239C82.4434 59.0199 81.8801 58.8812 81.3254 58.7079C80.7707 58.5346 80.2767 58.3092 79.8434 58.0319C79.4101 57.7372 79.0634 57.3819 78.8034 56.9659C78.5607 56.5499 78.4394 56.0386 78.4394 55.4319C78.4394 54.6866 78.6301 54.0279 79.0114 53.4559C79.3927 52.8666 79.9387 52.4072 80.6494 52.0779C81.3774 51.7486 82.2181 51.5839 83.1714 51.5839C84.5754 51.5839 85.7107 51.9219 86.5774 52.5979C87.4441 53.2739 87.9554 54.2532 88.1114 55.5359H85.9534C85.8667 54.8772 85.5807 54.3659 85.0954 54.0019C84.6274 53.6206 83.9774 53.4299 83.1454 53.4299C82.3307 53.4299 81.7067 53.5946 81.2734 53.9239C80.8574 54.2532 80.6494 54.6866 80.6494 55.2239C80.6494 55.5706 80.7621 55.8826 80.9874 56.1599C81.2301 56.4199 81.5767 56.6452 82.0274 56.8359C82.4954 57.0266 83.0674 57.1826 83.7434 57.3039C84.6101 57.4599 85.3987 57.6679 86.1094 57.9279C86.8201 58.1879 87.3921 58.5779 87.8254 59.0979C88.2761 59.6006 88.5014 60.3199 88.5014 61.2559C88.5014 62.0706 88.2934 62.7812 87.8774 63.3879C87.4787 63.9946 86.9067 64.4712 86.1614 64.8179C85.4161 65.1472 84.5407 65.3119 83.5354 65.3119ZM101.204 64.9999L97.3564 51.8959H99.5404L102.53 62.9459H102.14L105.39 51.8959H107.86L111.162 62.9199L110.746 62.9459L113.71 51.8959H115.92L112.098 64.9999H109.862L106.43 53.4559H106.872L103.44 64.9999H101.204ZM123.646 65.3119C122.415 65.3119 121.323 65.0259 120.37 64.4539C119.434 63.8819 118.697 63.0846 118.16 62.0619C117.623 61.0219 117.354 59.8172 117.354 58.4479C117.354 57.0612 117.614 55.8566 118.134 54.8339C118.671 53.8112 119.417 53.0139 120.37 52.4419C121.341 51.8699 122.45 51.5839 123.698 51.5839C124.981 51.5839 126.064 51.8699 126.948 52.4419C127.849 53.0139 128.534 53.7679 129.002 54.7039C129.487 55.6226 129.73 56.6366 129.73 57.7459C129.73 57.9192 129.73 58.1012 129.73 58.2919C129.73 58.4826 129.721 58.6992 129.704 58.9419H118.992V57.2519H127.598C127.546 56.0559 127.147 55.1199 126.402 54.4439C125.674 53.7679 124.755 53.4299 123.646 53.4299C122.901 53.4299 122.207 53.6032 121.566 53.9499C120.942 54.2792 120.439 54.7732 120.058 55.4319C119.677 56.0732 119.486 56.8792 119.486 57.8499V58.5779C119.486 59.6526 119.677 60.5539 120.058 61.2819C120.457 62.0099 120.968 62.5559 121.592 62.9199C122.233 63.2839 122.918 63.4659 123.646 63.4659C124.565 63.4659 125.319 63.2666 125.908 62.8679C126.515 62.4519 126.948 61.8972 127.208 61.2039H129.366C129.158 61.9839 128.794 62.6859 128.274 63.3099C127.754 63.9339 127.104 64.4279 126.324 64.7919C125.561 65.1386 124.669 65.3119 123.646 65.3119ZM138.423 65.3119C137.193 65.3119 136.101 65.0259 135.147 64.4539C134.211 63.8819 133.475 63.0846 132.937 62.0619C132.4 61.0219 132.131 59.8172 132.131 58.4479C132.131 57.0612 132.391 55.8566 132.911 54.8339C133.449 53.8112 134.194 53.0139 135.147 52.4419C136.118 51.8699 137.227 51.5839 138.475 51.5839C139.758 51.5839 140.841 51.8699 141.725 52.4419C142.627 53.0139 143.311 53.7679 143.779 54.7039C144.265 55.6226 144.507 56.6366 144.507 57.7459C144.507 57.9192 144.507 58.1012 144.507 58.2919C144.507 58.4826 144.499 58.6992 144.481 58.9419H133.769V57.2519H142.375C142.323 56.0559 141.925 55.1199 141.179 54.4439C140.451 53.7679 139.533 53.4299 138.423 53.4299C137.678 53.4299 136.985 53.6032 136.343 53.9499C135.719 54.2792 135.217 54.7732 134.835 55.4319C134.454 56.0732 134.263 56.8792 134.263 57.8499V58.5779C134.263 59.6526 134.454 60.5539 134.835 61.2819C135.234 62.0099 135.745 62.5559 136.369 62.9199C137.011 63.2839 137.695 63.4659 138.423 63.4659C139.342 63.4659 140.096 63.2666 140.685 62.8679C141.292 62.4519 141.725 61.8972 141.985 61.2039H144.143C143.935 61.9839 143.571 62.6859 143.051 63.3099C142.531 63.9339 141.881 64.4279 141.101 64.7919C140.339 65.1386 139.446 65.3119 138.423 65.3119ZM155.515 64.9999L149.275 57.8239L154.969 51.8959H157.647L151.121 58.6039L151.147 57.0439L158.297 64.9999H155.515ZM147.455 64.9999V46.2799H149.639V64.9999H147.455Z" fill="white"/>
<path d="M215.95 64.9998V46.7998H218.134V63.2578H226.61V64.9998H215.95ZM233.795 65.3118C232.738 65.3118 231.854 65.1298 231.143 64.7658C230.432 64.3845 229.904 63.8905 229.557 63.2838C229.21 62.6598 229.037 61.9838 229.037 61.2558C229.037 60.3718 229.262 59.6265 229.713 59.0198C230.181 58.3958 230.831 57.9278 231.663 57.6158C232.512 57.2865 233.509 57.1218 234.653 57.1218H238.111C238.111 56.3071 237.981 55.6311 237.721 55.0938C237.478 54.5391 237.114 54.1231 236.629 53.8458C236.161 53.5685 235.572 53.4298 234.861 53.4298C234.029 53.4298 233.31 53.6378 232.703 54.0538C232.096 54.4698 231.724 55.0851 231.585 55.8998H229.349C229.453 54.9638 229.765 54.1838 230.285 53.5598C230.822 52.9185 231.498 52.4331 232.313 52.1038C233.128 51.7571 233.977 51.5838 234.861 51.5838C236.074 51.5838 237.08 51.8091 237.877 52.2598C238.692 52.6931 239.298 53.3085 239.697 54.1058C240.096 54.8858 240.295 55.8131 240.295 56.8878V64.9998H238.345L238.215 62.6858C238.042 63.0498 237.816 63.3965 237.539 63.7258C237.279 64.0378 236.967 64.3151 236.603 64.5578C236.239 64.7831 235.823 64.9651 235.355 65.1038C234.904 65.2425 234.384 65.3118 233.795 65.3118ZM234.133 63.4658C234.74 63.4658 235.286 63.3445 235.771 63.1018C236.274 62.8418 236.698 62.4951 237.045 62.0618C237.392 61.6111 237.652 61.1171 237.825 60.5798C238.016 60.0425 238.111 59.4791 238.111 58.8898V58.8118H234.835C233.986 58.8118 233.301 58.9158 232.781 59.1238C232.261 59.3145 231.888 59.5918 231.663 59.9558C231.438 60.3025 231.325 60.7011 231.325 61.1518C231.325 61.6198 231.429 62.0271 231.637 62.3738C231.862 62.7205 232.183 62.9891 232.599 63.1798C233.032 63.3705 233.544 63.4658 234.133 63.4658ZM248.614 65.3118C247.522 65.3118 246.568 65.1298 245.754 64.7658C244.956 64.4018 244.315 63.8991 243.83 63.2578C243.362 62.5991 243.076 61.8278 242.972 60.9438H245.208C245.294 61.3945 245.476 61.8105 245.754 62.1918C246.031 62.5731 246.404 62.8851 246.872 63.1278C247.357 63.3531 247.946 63.4658 248.64 63.4658C249.246 63.4658 249.749 63.3791 250.148 63.2058C250.546 63.0151 250.841 62.7638 251.032 62.4518C251.24 62.1398 251.344 61.8018 251.344 61.4378C251.344 60.9005 251.214 60.4931 250.954 60.2158C250.711 59.9385 250.347 59.7218 249.862 59.5658C249.376 59.3925 248.787 59.2451 248.094 59.1238C247.522 59.0198 246.958 58.8811 246.404 58.7078C245.849 58.5345 245.355 58.3091 244.922 58.0318C244.488 57.7371 244.142 57.3818 243.882 56.9658C243.639 56.5498 243.518 56.0385 243.518 55.4318C243.518 54.6865 243.708 54.0278 244.09 53.4558C244.471 52.8665 245.017 52.4071 245.728 52.0778C246.456 51.7485 247.296 51.5838 248.25 51.5838C249.654 51.5838 250.789 51.9218 251.656 52.5978C252.522 53.2738 253.034 54.2531 253.19 55.5358H251.032C250.945 54.8771 250.659 54.3658 250.174 54.0018C249.706 53.6205 249.056 53.4298 248.224 53.4298C247.409 53.4298 246.785 53.5945 246.352 53.9238C245.936 54.2531 245.728 54.6865 245.728 55.2238C245.728 55.5705 245.84 55.8825 246.066 56.1598C246.308 56.4198 246.655 56.6451 247.106 56.8358C247.574 57.0265 248.146 57.1825 248.822 57.3038C249.688 57.4598 250.477 57.6678 251.188 57.9278C251.898 58.1878 252.47 58.5778 252.904 59.0978C253.354 59.6005 253.58 60.3198 253.58 61.2558C253.58 62.0705 253.372 62.7811 252.956 63.3878C252.557 63.9945 251.985 64.4711 251.24 64.8178C250.494 65.1471 249.619 65.3118 248.614 65.3118ZM261.288 64.9998C260.508 64.9998 259.832 64.8785 259.26 64.6358C258.688 64.3931 258.246 63.9858 257.934 63.4138C257.64 62.8245 257.492 62.0358 257.492 61.0478V53.7418H255.204V51.8958H257.492L257.778 48.7238H259.676V51.8958H263.472V53.7418H259.676V61.0478C259.676 61.8625 259.841 62.4171 260.17 62.7118C260.5 62.9891 261.08 63.1278 261.912 63.1278H263.316V64.9998H261.288ZM275.88 64.9998L272.032 51.8958H274.216L277.206 62.9458H276.816L280.066 51.8958H282.536L285.838 62.9198L285.422 62.9458L288.386 51.8958H290.596L286.774 64.9998H284.538L281.106 53.4558H281.548L278.116 64.9998H275.88ZM298.322 65.3118C297.091 65.3118 295.999 65.0258 295.046 64.4538C294.11 63.8818 293.373 63.0845 292.836 62.0618C292.299 61.0218 292.03 59.8171 292.03 58.4478C292.03 57.0611 292.29 55.8565 292.81 54.8338C293.347 53.8111 294.093 53.0138 295.046 52.4418C296.017 51.8698 297.126 51.5838 298.374 51.5838C299.657 51.5838 300.74 51.8698 301.624 52.4418C302.525 53.0138 303.21 53.7678 303.678 54.7038C304.163 55.6225 304.406 56.6365 304.406 57.7458C304.406 57.9191 304.406 58.1011 304.406 58.2918C304.406 58.4825 304.397 58.6991 304.38 58.9418H293.668V57.2518H302.274C302.222 56.0558 301.823 55.1198 301.078 54.4438C300.35 53.7678 299.431 53.4298 298.322 53.4298C297.577 53.4298 296.883 53.6031 296.242 53.9498C295.618 54.2791 295.115 54.7731 294.734 55.4318C294.353 56.0731 294.162 56.8791 294.162 57.8498V58.5778C294.162 59.6525 294.353 60.5538 294.734 61.2818C295.133 62.0098 295.644 62.5558 296.268 62.9198C296.909 63.2838 297.594 63.4658 298.322 63.4658C299.241 63.4658 299.995 63.2665 300.584 62.8678C301.191 62.4518 301.624 61.8971 301.884 61.2038H304.042C303.834 61.9838 303.47 62.6858 302.95 63.3098C302.43 63.9338 301.78 64.4278 301 64.7918C300.237 65.1385 299.345 65.3118 298.322 65.3118ZM313.099 65.3118C311.869 65.3118 310.777 65.0258 309.823 64.4538C308.887 63.8818 308.151 63.0845 307.613 62.0618C307.076 61.0218 306.807 59.8171 306.807 58.4478C306.807 57.0611 307.067 55.8565 307.587 54.8338C308.125 53.8111 308.87 53.0138 309.823 52.4418C310.794 51.8698 311.903 51.5838 313.151 51.5838C314.434 51.5838 315.517 51.8698 316.401 52.4418C317.303 53.0138 317.987 53.7678 318.455 54.7038C318.941 55.6225 319.183 56.6365 319.183 57.7458C319.183 57.9191 319.183 58.1011 319.183 58.2918C319.183 58.4825 319.175 58.6991 319.157 58.9418H308.445V57.2518H317.051C316.999 56.0558 316.601 55.1198 315.855 54.4438C315.127 53.7678 314.209 53.4298 313.099 53.4298C312.354 53.4298 311.661 53.6031 311.019 53.9498C310.395 54.2791 309.893 54.7731 309.511 55.4318C309.13 56.0731 308.939 56.8791 308.939 57.8498V58.5778C308.939 59.6525 309.13 60.5538 309.511 61.2818C309.91 62.0098 310.421 62.5558 311.045 62.9198C311.687 63.2838 312.371 63.4658 313.099 63.4658C314.018 63.4658 314.772 63.2665 315.361 62.8678C315.968 62.4518 316.401 61.8971 316.661 61.2038H318.819C318.611 61.9838 318.247 62.6858 317.727 63.3098C317.207 63.9338 316.557 64.4278 315.777 64.7918C315.015 65.1385 314.122 65.3118 313.099 65.3118ZM330.191 64.9998L323.951 57.8238L329.645 51.8958H332.323L325.797 58.6038L325.823 57.0438L332.973 64.9998H330.191ZM322.131 64.9998V46.2798H324.315V64.9998H322.131Z" fill="white"/>
<path d="M395.214 64.9999V48.5939H389.78V46.7999H402.832V48.5939H397.398V64.9999H395.214ZM405.394 64.9999V46.2799H407.578V54.1059C408.012 53.3259 408.618 52.7106 409.398 52.2599C410.196 51.8092 411.062 51.5839 411.998 51.5839C413.004 51.5839 413.879 51.7919 414.624 52.2079C415.37 52.6066 415.942 53.2219 416.34 54.0539C416.739 54.8859 416.938 55.9346 416.938 57.1999V64.9999H414.78V57.4339C414.78 56.1166 414.503 55.1286 413.948 54.4699C413.394 53.7939 412.588 53.4559 411.53 53.4559C410.785 53.4559 410.109 53.6379 409.502 54.0019C408.913 54.3659 408.445 54.8859 408.098 55.5619C407.752 56.2379 407.578 57.0699 407.578 58.0579V64.9999H405.394ZM420.557 64.9999V51.8959H422.741V64.9999H420.557ZM421.649 49.1139C421.216 49.1139 420.852 48.9752 420.557 48.6979C420.28 48.4032 420.141 48.0392 420.141 47.6059C420.141 47.1726 420.28 46.8259 420.557 46.5659C420.852 46.2886 421.216 46.1499 421.649 46.1499C422.065 46.1499 422.421 46.2886 422.715 46.5659C423.01 46.8259 423.157 47.1726 423.157 47.6059C423.157 48.0392 423.01 48.4032 422.715 48.6979C422.421 48.9752 422.065 49.1139 421.649 49.1139ZM431.535 65.3119C430.443 65.3119 429.49 65.1299 428.675 64.7659C427.878 64.4019 427.237 63.8992 426.751 63.2579C426.283 62.5992 425.997 61.8279 425.893 60.9439H428.129C428.216 61.3946 428.398 61.8106 428.675 62.1919C428.953 62.5732 429.325 62.8852 429.793 63.1279C430.279 63.3532 430.868 63.4659 431.561 63.4659C432.168 63.4659 432.671 63.3792 433.069 63.2059C433.468 63.0152 433.763 62.7639 433.953 62.4519C434.161 62.1399 434.265 61.8019 434.265 61.4379C434.265 60.9006 434.135 60.4932 433.875 60.2159C433.633 59.9386 433.269 59.7219 432.783 59.5659C432.298 59.3926 431.709 59.2452 431.015 59.1239C430.443 59.0199 429.88 58.8812 429.325 58.7079C428.771 58.5346 428.277 58.3092 427.843 58.0319C427.41 57.7372 427.063 57.3819 426.803 56.9659C426.561 56.5499 426.439 56.0386 426.439 55.4319C426.439 54.6866 426.63 54.0279 427.011 53.4559C427.393 52.8666 427.939 52.4072 428.649 52.0779C429.377 51.7486 430.218 51.5839 431.171 51.5839C432.575 51.5839 433.711 51.9219 434.577 52.5979C435.444 53.2739 435.955 54.2532 436.111 55.5359H433.953C433.867 54.8772 433.581 54.3659 433.095 54.0019C432.627 53.6206 431.977 53.4299 431.145 53.4299C430.331 53.4299 429.707 53.5946 429.273 53.9239C428.857 54.2532 428.649 54.6866 428.649 55.2239C428.649 55.5706 428.762 55.8826 428.987 56.1599C429.23 56.4199 429.577 56.6452 430.027 56.8359C430.495 57.0266 431.067 57.1826 431.743 57.3039C432.61 57.4599 433.399 57.6679 434.109 57.9279C434.82 58.1879 435.392 58.5779 435.825 59.0979C436.276 59.6006 436.501 60.3199 436.501 61.2559C436.501 62.0706 436.293 62.7812 435.877 63.3879C435.479 63.9946 434.907 64.4712 434.161 64.8179C433.416 65.1472 432.541 65.3119 431.535 65.3119ZM446.552 64.9999V51.8959H448.528L448.658 53.7679C449.074 53.0919 449.629 52.5632 450.322 52.1819C451.033 51.7832 451.804 51.5839 452.636 51.5839C453.312 51.5839 453.919 51.6792 454.456 51.8699C455.011 52.0432 455.496 52.3206 455.912 52.7019C456.328 53.0659 456.666 53.5339 456.926 54.1059C457.377 53.3086 457.992 52.6932 458.772 52.2599C459.57 51.8092 460.419 51.5839 461.32 51.5839C462.326 51.5839 463.201 51.7919 463.946 52.2079C464.709 52.6066 465.29 53.2219 465.688 54.0539C466.104 54.8686 466.312 55.9086 466.312 57.1739V64.9999H464.154V57.4079C464.154 56.0906 463.886 55.1026 463.348 54.4439C462.811 53.7852 462.057 53.4559 461.086 53.4559C460.41 53.4559 459.804 53.6379 459.266 54.0019C458.729 54.3486 458.304 54.8599 457.992 55.5359C457.68 56.2119 457.524 57.0439 457.524 58.0319V64.9999H455.34V57.4079C455.34 56.0906 455.072 55.1026 454.534 54.4439C453.997 53.7852 453.234 53.4559 452.246 53.4559C451.588 53.4559 450.99 53.6379 450.452 54.0019C449.932 54.3486 449.516 54.8599 449.204 55.5359C448.892 56.2119 448.736 57.0439 448.736 58.0319V64.9999H446.552ZM475.559 65.3119C474.345 65.3119 473.253 65.0346 472.283 64.4799C471.312 63.9079 470.549 63.1106 469.995 62.0879C469.44 61.0479 469.163 59.8432 469.163 58.4739C469.163 57.0699 469.44 55.8566 469.995 54.8339C470.567 53.7939 471.338 52.9966 472.309 52.4419C473.297 51.8699 474.397 51.5839 475.611 51.5839C476.859 51.5839 477.959 51.8699 478.913 52.4419C479.883 52.9966 480.646 53.7939 481.201 54.8339C481.773 55.8566 482.059 57.0612 482.059 58.4479C482.059 59.8346 481.773 61.0479 481.201 62.0879C480.629 63.1106 479.857 63.9079 478.887 64.4799C477.916 65.0346 476.807 65.3119 475.559 65.3119ZM475.585 63.4399C476.33 63.4399 477.023 63.2579 477.665 62.8939C478.306 62.5126 478.826 61.9492 479.225 61.2039C479.623 60.4586 479.823 59.5399 479.823 58.4479C479.823 57.3386 479.623 56.4199 479.225 55.6919C478.843 54.9466 478.332 54.3919 477.691 54.0279C477.067 53.6466 476.373 53.4559 475.611 53.4559C474.883 53.4559 474.189 53.6466 473.531 54.0279C472.889 54.3919 472.369 54.9466 471.971 55.6919C471.589 56.4199 471.399 57.3386 471.399 58.4479C471.399 59.5399 471.589 60.4586 471.971 61.2039C472.369 61.9492 472.881 62.5126 473.505 62.8939C474.146 63.2579 474.839 63.4399 475.585 63.4399ZM485.121 64.9999V51.8959H487.097L487.201 54.1839C487.617 53.3692 488.206 52.7366 488.969 52.2859C489.749 51.8179 490.633 51.5839 491.621 51.5839C492.643 51.5839 493.527 51.7919 494.273 52.2079C495.018 52.6066 495.599 53.2219 496.015 54.0539C496.431 54.8686 496.639 55.9086 496.639 57.1739V64.9999H494.455V57.4079C494.455 56.0906 494.16 55.1026 493.571 54.4439C492.999 53.7852 492.184 53.4559 491.127 53.4559C490.399 53.4559 489.749 53.6379 489.177 54.0019C488.605 54.3486 488.145 54.8599 487.799 55.5359C487.469 56.1946 487.305 57.0179 487.305 58.0059V64.9999H485.121ZM505.198 64.9999C504.418 64.9999 503.742 64.8786 503.17 64.6359C502.598 64.3932 502.156 63.9859 501.844 63.4139C501.55 62.8246 501.402 62.0359 501.402 61.0479V53.7419H499.114V51.8959H501.402L501.688 48.7239H503.586V51.8959H507.382V53.7419H503.586V61.0479C503.586 61.8626 503.751 62.4172 504.08 62.7119C504.41 62.9892 504.99 63.1279 505.822 63.1279H507.226V64.9999H505.198ZM510.232 64.9999V46.2799H512.416V54.1059C512.849 53.3259 513.456 52.7106 514.236 52.2599C515.033 51.8092 515.9 51.5839 516.836 51.5839C517.841 51.5839 518.717 51.7919 519.462 52.2079C520.207 52.6066 520.779 53.2219 521.178 54.0539C521.577 54.8859 521.776 55.9346 521.776 57.1999V64.9999H519.618V57.4339C519.618 56.1166 519.341 55.1286 518.786 54.4699C518.231 53.7939 517.425 53.4559 516.368 53.4559C515.623 53.4559 514.947 53.6379 514.34 54.0019C513.751 54.3659 513.283 54.8859 512.936 55.5619C512.589 56.2379 512.416 57.0699 512.416 58.0579V64.9999H510.232Z" fill="white"/>
<path d="M580.95 64.9998V46.7998H583.134V63.2578H591.61V64.9998H580.95ZM598.795 65.3118C597.738 65.3118 596.854 65.1298 596.143 64.7658C595.432 64.3845 594.904 63.8905 594.557 63.2838C594.21 62.6598 594.037 61.9838 594.037 61.2558C594.037 60.3718 594.262 59.6265 594.713 59.0198C595.181 58.3958 595.831 57.9278 596.663 57.6158C597.512 57.2865 598.509 57.1218 599.653 57.1218H603.111C603.111 56.3071 602.981 55.6311 602.721 55.0938C602.478 54.5391 602.114 54.1231 601.629 53.8458C601.161 53.5685 600.572 53.4298 599.861 53.4298C599.029 53.4298 598.31 53.6378 597.703 54.0538C597.096 54.4698 596.724 55.0851 596.585 55.8998H594.349C594.453 54.9638 594.765 54.1838 595.285 53.5598C595.822 52.9185 596.498 52.4331 597.313 52.1038C598.128 51.7571 598.977 51.5838 599.861 51.5838C601.074 51.5838 602.08 51.8091 602.877 52.2598C603.692 52.6931 604.298 53.3085 604.697 54.1058C605.096 54.8858 605.295 55.8131 605.295 56.8878V64.9998H603.345L603.215 62.6858C603.042 63.0498 602.816 63.3965 602.539 63.7258C602.279 64.0378 601.967 64.3151 601.603 64.5578C601.239 64.7831 600.823 64.9651 600.355 65.1038C599.904 65.2425 599.384 65.3118 598.795 65.3118ZM599.133 63.4658C599.74 63.4658 600.286 63.3445 600.771 63.1018C601.274 62.8418 601.698 62.4951 602.045 62.0618C602.392 61.6111 602.652 61.1171 602.825 60.5798C603.016 60.0425 603.111 59.4791 603.111 58.8898V58.8118H599.835C598.986 58.8118 598.301 58.9158 597.781 59.1238C597.261 59.3145 596.888 59.5918 596.663 59.9558C596.438 60.3025 596.325 60.7011 596.325 61.1518C596.325 61.6198 596.429 62.0271 596.637 62.3738C596.862 62.7205 597.183 62.9891 597.599 63.1798C598.032 63.3705 598.544 63.4658 599.133 63.4658ZM613.614 65.3118C612.522 65.3118 611.568 65.1298 610.754 64.7658C609.956 64.4018 609.315 63.8991 608.83 63.2578C608.362 62.5991 608.076 61.8278 607.972 60.9438H610.208C610.294 61.3945 610.476 61.8105 610.754 62.1918C611.031 62.5731 611.404 62.8851 611.872 63.1278C612.357 63.3531 612.946 63.4658 613.64 63.4658C614.246 63.4658 614.749 63.3791 615.148 63.2058C615.546 63.0151 615.841 62.7638 616.032 62.4518C616.24 62.1398 616.344 61.8018 616.344 61.4378C616.344 60.9005 616.214 60.4931 615.954 60.2158C615.711 59.9385 615.347 59.7218 614.862 59.5658C614.376 59.3925 613.787 59.2451 613.094 59.1238C612.522 59.0198 611.958 58.8811 611.404 58.7078C610.849 58.5345 610.355 58.3091 609.922 58.0318C609.488 57.7371 609.142 57.3818 608.882 56.9658C608.639 56.5498 608.518 56.0385 608.518 55.4318C608.518 54.6865 608.708 54.0278 609.09 53.4558C609.471 52.8665 610.017 52.4071 610.728 52.0778C611.456 51.7485 612.296 51.5838 613.25 51.5838C614.654 51.5838 615.789 51.9218 616.656 52.5978C617.522 53.2738 618.034 54.2531 618.19 55.5358H616.032C615.945 54.8771 615.659 54.3658 615.174 54.0018C614.706 53.6205 614.056 53.4298 613.224 53.4298C612.409 53.4298 611.785 53.5945 611.352 53.9238C610.936 54.2531 610.728 54.6865 610.728 55.2238C610.728 55.5705 610.84 55.8825 611.066 56.1598C611.308 56.4198 611.655 56.6451 612.106 56.8358C612.574 57.0265 613.146 57.1825 613.822 57.3038C614.688 57.4598 615.477 57.6678 616.188 57.9278C616.898 58.1878 617.47 58.5778 617.904 59.0978C618.354 59.6005 618.58 60.3198 618.58 61.2558C618.58 62.0705 618.372 62.7811 617.956 63.3878C617.557 63.9945 616.985 64.4711 616.24 64.8178C615.494 65.1471 614.619 65.3118 613.614 65.3118ZM626.288 64.9998C625.508 64.9998 624.832 64.8785 624.26 64.6358C623.688 64.3931 623.246 63.9858 622.934 63.4138C622.64 62.8245 622.492 62.0358 622.492 61.0478V53.7418H620.204V51.8958H622.492L622.778 48.7238H624.676V51.8958H628.472V53.7418H624.676V61.0478C624.676 61.8625 624.841 62.4171 625.17 62.7118C625.5 62.9891 626.08 63.1278 626.912 63.1278H628.316V64.9998H626.288ZM640.88 64.9998L637.032 51.8958H639.216L642.206 62.9458H641.816L645.066 51.8958H647.536L650.838 62.9198L650.422 62.9458L653.386 51.8958H655.596L651.774 64.9998H649.538L646.106 53.4558H646.548L643.116 64.9998H640.88ZM663.322 65.3118C662.091 65.3118 660.999 65.0258 660.046 64.4538C659.11 63.8818 658.373 63.0845 657.836 62.0618C657.299 61.0218 657.03 59.8171 657.03 58.4478C657.03 57.0611 657.29 55.8565 657.81 54.8338C658.347 53.8111 659.093 53.0138 660.046 52.4418C661.017 51.8698 662.126 51.5838 663.374 51.5838C664.657 51.5838 665.74 51.8698 666.624 52.4418C667.525 53.0138 668.21 53.7678 668.678 54.7038C669.163 55.6225 669.406 56.6365 669.406 57.7458C669.406 57.9191 669.406 58.1011 669.406 58.2918C669.406 58.4825 669.397 58.6991 669.38 58.9418H658.668V57.2518H667.274C667.222 56.0558 666.823 55.1198 666.078 54.4438C665.35 53.7678 664.431 53.4298 663.322 53.4298C662.577 53.4298 661.883 53.6031 661.242 53.9498C660.618 54.2791 660.115 54.7731 659.734 55.4318C659.353 56.0731 659.162 56.8791 659.162 57.8498V58.5778C659.162 59.6525 659.353 60.5538 659.734 61.2818C660.133 62.0098 660.644 62.5558 661.268 62.9198C661.909 63.2838 662.594 63.4658 663.322 63.4658C664.241 63.4658 664.995 63.2665 665.584 62.8678C666.191 62.4518 666.624 61.8971 666.884 61.2038H669.042C668.834 61.9838 668.47 62.6858 667.95 63.3098C667.43 63.9338 666.78 64.4278 666 64.7918C665.237 65.1385 664.345 65.3118 663.322 65.3118ZM678.099 65.3118C676.869 65.3118 675.777 65.0258 674.823 64.4538C673.887 63.8818 673.151 63.0845 672.613 62.0618C672.076 61.0218 671.807 59.8171 671.807 58.4478C671.807 57.0611 672.067 55.8565 672.587 54.8338C673.125 53.8111 673.87 53.0138 674.823 52.4418C675.794 51.8698 676.903 51.5838 678.151 51.5838C679.434 51.5838 680.517 51.8698 681.401 52.4418C682.303 53.0138 682.987 53.7678 683.455 54.7038C683.941 55.6225 684.183 56.6365 684.183 57.7458C684.183 57.9191 684.183 58.1011 684.183 58.2918C684.183 58.4825 684.175 58.6991 684.157 58.9418H673.445V57.2518H682.051C681.999 56.0558 681.601 55.1198 680.855 54.4438C680.127 53.7678 679.209 53.4298 678.099 53.4298C677.354 53.4298 676.661 53.6031 676.019 53.9498C675.395 54.2791 674.893 54.7731 674.511 55.4318C674.13 56.0731 673.939 56.8791 673.939 57.8498V58.5778C673.939 59.6525 674.13 60.5538 674.511 61.2818C674.91 62.0098 675.421 62.5558 676.045 62.9198C676.687 63.2838 677.371 63.4658 678.099 63.4658C679.018 63.4658 679.772 63.2665 680.361 62.8678C680.968 62.4518 681.401 61.8971 681.661 61.2038H683.819C683.611 61.9838 683.247 62.6858 682.727 63.3098C682.207 63.9338 681.557 64.4278 680.777 64.7918C680.015 65.1385 679.122 65.3118 678.099 65.3118ZM695.191 64.9998L688.951 57.8238L694.645 51.8958H697.323L690.797 58.6038L690.823 57.0438L697.973 64.9998H695.191ZM687.131 64.9998V46.2798H689.315V64.9998H687.131Z" fill="white"/>
<path d="M760.214 64.9999V48.5939H754.78V46.7999H767.832V48.5939H762.398V64.9999H760.214ZM770.394 64.9999V46.2799H772.578V54.1059C773.012 53.3259 773.618 52.7106 774.398 52.2599C775.196 51.8092 776.062 51.5839 776.998 51.5839C778.004 51.5839 778.879 51.7919 779.624 52.2079C780.37 52.6066 780.942 53.2219 781.34 54.0539C781.739 54.8859 781.938 55.9346 781.938 57.1999V64.9999H779.78V57.4339C779.78 56.1166 779.503 55.1286 778.948 54.4699C778.394 53.7939 777.588 53.4559 776.53 53.4559C775.785 53.4559 775.109 53.6379 774.502 54.0019C773.913 54.3659 773.445 54.8859 773.098 55.5619C772.752 56.2379 772.578 57.0699 772.578 58.0579V64.9999H770.394ZM785.557 64.9999V51.8959H787.741V64.9999H785.557ZM786.649 49.1139C786.216 49.1139 785.852 48.9752 785.557 48.6979C785.28 48.4032 785.141 48.0392 785.141 47.6059C785.141 47.1726 785.28 46.8259 785.557 46.5659C785.852 46.2886 786.216 46.1499 786.649 46.1499C787.065 46.1499 787.421 46.2886 787.715 46.5659C788.01 46.8259 788.157 47.1726 788.157 47.6059C788.157 48.0392 788.01 48.4032 787.715 48.6979C787.421 48.9752 787.065 49.1139 786.649 49.1139ZM796.535 65.3119C795.443 65.3119 794.49 65.1299 793.675 64.7659C792.878 64.4019 792.237 63.8992 791.751 63.2579C791.283 62.5992 790.997 61.8279 790.893 60.9439H793.129C793.216 61.3946 793.398 61.8106 793.675 62.1919C793.953 62.5732 794.325 62.8852 794.793 63.1279C795.279 63.3532 795.868 63.4659 796.561 63.4659C797.168 63.4659 797.671 63.3792 798.069 63.2059C798.468 63.0152 798.763 62.7639 798.953 62.4519C799.161 62.1399 799.265 61.8019 799.265 61.4379C799.265 60.9006 799.135 60.4932 798.875 60.2159C798.633 59.9386 798.269 59.7219 797.783 59.5659C797.298 59.3926 796.709 59.2452 796.015 59.1239C795.443 59.0199 794.88 58.8812 794.325 58.7079C793.771 58.5346 793.277 58.3092 792.843 58.0319C792.41 57.7372 792.063 57.3819 791.803 56.9659C791.561 56.5499 791.439 56.0386 791.439 55.4319C791.439 54.6866 791.63 54.0279 792.011 53.4559C792.393 52.8666 792.939 52.4072 793.649 52.0779C794.377 51.7486 795.218 51.5839 796.171 51.5839C797.575 51.5839 798.711 51.9219 799.577 52.5979C800.444 53.2739 800.955 54.2532 801.111 55.5359H798.953C798.867 54.8772 798.581 54.3659 798.095 54.0019C797.627 53.6206 796.977 53.4299 796.145 53.4299C795.331 53.4299 794.707 53.5946 794.273 53.9239C793.857 54.2532 793.649 54.6866 793.649 55.2239C793.649 55.5706 793.762 55.8826 793.987 56.1599C794.23 56.4199 794.577 56.6452 795.027 56.8359C795.495 57.0266 796.067 57.1826 796.743 57.3039C797.61 57.4599 798.399 57.6679 799.109 57.9279C799.82 58.1879 800.392 58.5779 800.825 59.0979C801.276 59.6006 801.501 60.3199 801.501 61.2559C801.501 62.0706 801.293 62.7812 800.877 63.3879C800.479 63.9946 799.907 64.4712 799.161 64.8179C798.416 65.1472 797.541 65.3119 796.535 65.3119ZM812.982 70.7199L816.18 63.5439H815.426L810.278 51.8959H812.644L816.908 61.9059L821.38 51.8959H823.642L815.27 70.7199H812.982ZM830.527 65.3119C829.296 65.3119 828.204 65.0259 827.251 64.4539C826.315 63.8819 825.578 63.0846 825.041 62.0619C824.504 61.0219 824.235 59.8172 824.235 58.4479C824.235 57.0612 824.495 55.8566 825.015 54.8339C825.552 53.8112 826.298 53.0139 827.251 52.4419C828.222 51.8699 829.331 51.5839 830.579 51.5839C831.862 51.5839 832.945 51.8699 833.829 52.4419C834.73 53.0139 835.415 53.7679 835.883 54.7039C836.368 55.6226 836.611 56.6366 836.611 57.7459C836.611 57.9192 836.611 58.1012 836.611 58.2919C836.611 58.4826 836.602 58.6992 836.585 58.9419H825.873V57.2519H834.479C834.427 56.0559 834.028 55.1199 833.283 54.4439C832.555 53.7679 831.636 53.4299 830.527 53.4299C829.782 53.4299 829.088 53.6032 828.447 53.9499C827.823 54.2792 827.32 54.7732 826.939 55.4319C826.558 56.0732 826.367 56.8792 826.367 57.8499V58.5779C826.367 59.6526 826.558 60.5539 826.939 61.2819C827.338 62.0099 827.849 62.5559 828.473 62.9199C829.114 63.2839 829.799 63.4659 830.527 63.4659C831.446 63.4659 832.2 63.2666 832.789 62.8679C833.396 62.4519 833.829 61.8972 834.089 61.2039H836.247C836.039 61.9839 835.675 62.6859 835.155 63.3099C834.635 63.9339 833.985 64.4279 833.205 64.7919C832.442 65.1386 831.55 65.3119 830.527 65.3119ZM843.822 65.3119C842.765 65.3119 841.881 65.1299 841.17 64.7659C840.46 64.3846 839.931 63.8906 839.584 63.2839C839.238 62.6599 839.064 61.9839 839.064 61.2559C839.064 60.3719 839.29 59.6266 839.74 59.0199C840.208 58.3959 840.858 57.9279 841.69 57.6159C842.54 57.2866 843.536 57.1219 844.68 57.1219H848.138C848.138 56.3072 848.008 55.6312 847.748 55.0939C847.506 54.5392 847.142 54.1232 846.656 53.8459C846.188 53.5686 845.599 53.4299 844.888 53.4299C844.056 53.4299 843.337 53.6379 842.73 54.0539C842.124 54.4699 841.751 55.0852 841.612 55.8999H839.376C839.48 54.9639 839.792 54.1839 840.312 53.5599C840.85 52.9186 841.526 52.4332 842.34 52.1039C843.155 51.7572 844.004 51.5839 844.888 51.5839C846.102 51.5839 847.107 51.8092 847.904 52.2599C848.719 52.6932 849.326 53.3086 849.724 54.1059C850.123 54.8859 850.322 55.8132 850.322 56.8879V64.9999H848.372L848.242 62.6859C848.069 63.0499 847.844 63.3966 847.566 63.7259C847.306 64.0379 846.994 64.3152 846.63 64.5579C846.266 64.7832 845.85 64.9652 845.382 65.1039C844.932 65.2426 844.412 65.3119 843.822 65.3119ZM844.16 63.4659C844.767 63.4659 845.313 63.3446 845.798 63.1019C846.301 62.8419 846.726 62.4952 847.072 62.0619C847.419 61.6112 847.679 61.1172 847.852 60.5799C848.043 60.0426 848.138 59.4792 848.138 58.8899V58.8119H844.862C844.013 58.8119 843.328 58.9159 842.808 59.1239C842.288 59.3146 841.916 59.5919 841.69 59.9559C841.465 60.3026 841.352 60.7012 841.352 61.1519C841.352 61.6199 841.456 62.0272 841.664 62.3739C841.89 62.7206 842.21 62.9892 842.626 63.1799C843.06 63.3706 843.571 63.4659 844.16 63.4659ZM853.701 64.9999V51.8959H855.677L855.833 54.3919C856.128 53.8026 856.5 53.2999 856.951 52.8839C857.419 52.4679 857.974 52.1472 858.615 51.9219C859.274 51.6966 860.019 51.5839 860.851 51.5839V53.8719H860.045C859.49 53.8719 858.962 53.9499 858.459 54.1059C857.956 54.2446 857.506 54.4786 857.107 54.8079C856.726 55.1372 856.422 55.5879 856.197 56.1599C855.989 56.7146 855.885 57.4079 855.885 58.2399V64.9999H853.701Z" fill="white"/>
<path d="M21 144C21 135.163 28.1634 128 37 128H543C551.837 128 559 135.163 559 144V422H21V144Z" fill="white" fill-opacity="0.02"/>
<mask id="mask1_70_197" style="mask-type:luminance" maskUnits="userSpaceOnUse" x="21" y="128" width="538" height="294">
<path d="M21 144C21 135.163 28.1634 128 37 128H543C551.837 128 559 135.163 559 144V422H21V144Z" fill="white"/>
</mask>
<g mask="url(#mask1_70_197)">
<path d="M19 144C19 134.059 27.0589 126 37 126H543C552.941 126 561 134.059 561 144H557C557 136.268 550.732 130 543 130H37C29.268 130 23 136.268 23 144H19ZM19 422V144C19 134.059 27.0589 126 37 126V130C29.268 130 23 136.268 23 144V422H19ZM543 126C552.941 126 561 134.059 561 144V422H557V144C557 136.268 550.732 130 543 130V126Z" fill="url(#paint0_linear_70_197)"/>
</g>
<path d="M64.0399 186V173.88L61.6399 174.48V173.28L64.5999 172H65.7399V186H64.0399ZM74.0904 186.24C72.8637 186.24 71.8037 185.94 70.9104 185.34C70.0304 184.727 69.357 183.88 68.8904 182.8C68.4237 181.707 68.1904 180.44 68.1904 179C68.1904 177.56 68.4237 176.3 68.8904 175.22C69.357 174.127 70.0304 173.28 70.9104 172.68C71.8037 172.067 72.8637 171.76 74.0904 171.76C75.317 171.76 76.3637 172.067 77.2304 172.68C78.1104 173.28 78.7837 174.127 79.2504 175.22C79.717 176.3 79.9504 177.56 79.9504 179C79.9504 180.44 79.717 181.707 79.2504 182.8C78.7837 183.88 78.1104 184.727 77.2304 185.34C76.3637 185.94 75.317 186.24 74.0904 186.24ZM74.0704 184.76C74.8704 184.76 75.5837 184.533 76.2104 184.08C76.837 183.613 77.3304 182.953 77.6904 182.1C78.0504 181.233 78.2304 180.2 78.2304 179C78.2304 177.8 78.0504 176.773 77.6904 175.92C77.3304 175.053 76.837 174.393 76.2104 173.94C75.5837 173.487 74.8704 173.26 74.0704 173.26C73.2704 173.26 72.5504 173.487 71.9104 173.94C71.2837 174.393 70.7904 175.053 70.4304 175.92C70.0837 176.773 69.9104 177.8 69.9104 179C69.9104 180.2 70.0837 181.233 70.4304 182.1C70.7904 182.953 71.2837 183.613 71.9104 184.08C72.5504 184.533 73.2704 184.76 74.0704 184.76ZM87.7622 186.24C86.5356 186.24 85.4756 185.94 84.5822 185.34C83.7022 184.727 83.0289 183.88 82.5622 182.8C82.0956 181.707 81.8622 180.44 81.8622 179C81.8622 177.56 82.0956 176.3 82.5622 175.22C83.0289 174.127 83.7022 173.28 84.5822 172.68C85.4756 172.067 86.5356 171.76 87.7622 171.76C88.9889 171.76 90.0356 172.067 90.9022 172.68C91.7822 173.28 92.4556 174.127 92.9222 175.22C93.3889 176.3 93.6222 177.56 93.6222 179C93.6222 180.44 93.3889 181.707 92.9222 182.8C92.4556 183.88 91.7822 184.727 90.9022 185.34C90.0356 185.94 88.9889 186.24 87.7622 186.24ZM87.7422 184.76C88.5422 184.76 89.2556 184.533 89.8822 184.08C90.5089 183.613 91.0022 182.953 91.3622 182.1C91.7222 181.233 91.9022 180.2 91.9022 179C91.9022 177.8 91.7222 176.773 91.3622 175.92C91.0022 175.053 90.5089 174.393 89.8822 173.94C89.2556 173.487 88.5422 173.26 87.7422 173.26C86.9422 173.26 86.2222 173.487 85.5822 173.94C84.9556 174.393 84.4622 175.053 84.1022 175.92C83.7556 176.773 83.5822 177.8 83.5822 179C83.5822 180.2 83.7556 181.233 84.1022 182.1C84.4622 182.953 84.9556 183.613 85.5822 184.08C86.2222 184.533 86.9422 184.76 87.7422 184.76Z" fill="#737373"/>
<path d="M63.76 224L69.22 211.44H61.54V210H70.94V211.26L65.54 224H63.76ZM77.3177 224.24C76.3577 224.24 75.5243 224.067 74.8177 223.72C74.1243 223.373 73.571 222.9 73.1577 222.3C72.7577 221.7 72.5043 221.027 72.3977 220.28H74.0377C74.1977 221.027 74.5643 221.633 75.1377 222.1C75.711 222.567 76.4443 222.8 77.3377 222.8C78.0043 222.8 78.571 222.647 79.0377 222.34C79.5177 222.033 79.8843 221.613 80.1377 221.08C80.4043 220.547 80.5377 219.953 80.5377 219.3C80.5377 218.62 80.4043 218.02 80.1377 217.5C79.871 216.98 79.5043 216.58 79.0377 216.3C78.571 216.007 78.0243 215.86 77.3977 215.86C76.6377 215.86 75.991 216.027 75.4577 216.36C74.9243 216.693 74.5243 217.12 74.2577 217.64H72.6377L73.7977 210H81.1977V211.46H75.0977L74.3177 215.76C74.651 215.373 75.091 215.06 75.6377 214.82C76.1977 214.567 76.8443 214.44 77.5777 214.44C78.271 214.44 78.8977 214.56 79.4577 214.8C80.0177 215.04 80.4977 215.38 80.8977 215.82C81.2977 216.26 81.6043 216.773 81.8177 217.36C82.0443 217.947 82.1577 218.587 82.1577 219.28C82.1577 219.96 82.0443 220.6 81.8177 221.2C81.6043 221.787 81.291 222.313 80.8777 222.78C80.4643 223.233 79.9577 223.593 79.3577 223.86C78.7577 224.113 78.0777 224.24 77.3177 224.24Z" fill="#737373"/>
<path d="M67.2201 262.24C66.2601 262.24 65.4268 262.067 64.7201 261.72C64.0268 261.373 63.4734 260.9 63.0601 260.3C62.6601 259.7 62.4067 259.027 62.3 258.28H63.94C64.1 259.027 64.4668 259.633 65.0401 260.1C65.6134 260.567 66.3467 260.8 67.24 260.8C67.9067 260.8 68.4734 260.647 68.9401 260.34C69.4201 260.033 69.7868 259.613 70.0401 259.08C70.3068 258.547 70.4401 257.953 70.4401 257.3C70.4401 256.62 70.3068 256.02 70.0401 255.5C69.7734 254.98 69.4068 254.58 68.9401 254.3C68.4734 254.007 67.9268 253.86 67.3001 253.86C66.5401 253.86 65.8934 254.027 65.3601 254.36C64.8268 254.693 64.4268 255.12 64.1601 255.64H62.5401L63.7001 248H71.1V249.46H65L64.2201 253.76C64.5534 253.373 64.9934 253.06 65.5401 252.82C66.1001 252.567 66.7468 252.44 67.4801 252.44C68.1734 252.44 68.8001 252.56 69.3601 252.8C69.9201 253.04 70.4001 253.38 70.8001 253.82C71.2001 254.26 71.5068 254.773 71.7201 255.36C71.9468 255.947 72.06 256.587 72.06 257.28C72.06 257.96 71.9468 258.6 71.7201 259.2C71.5068 259.787 71.1933 260.313 70.78 260.78C70.3667 261.233 69.8601 261.593 69.2601 261.86C68.6601 262.113 67.9801 262.24 67.2201 262.24ZM80.0671 262.24C78.8405 262.24 77.7805 261.94 76.8871 261.34C76.0071 260.727 75.3337 259.88 74.867 258.8C74.4004 257.707 74.167 256.44 74.167 255C74.167 253.56 74.4004 252.3 74.867 251.22C75.3337 250.127 76.0071 249.28 76.8871 248.68C77.7805 248.067 78.8405 247.76 80.0671 247.76C81.2938 247.76 82.3405 248.067 83.2071 248.68C84.0871 249.28 84.7604 250.127 85.227 251.22C85.6937 252.3 85.9271 253.56 85.9271 255C85.9271 256.44 85.6937 257.707 85.227 258.8C84.7604 259.88 84.0871 260.727 83.2071 261.34C82.3405 261.94 81.2938 262.24 80.0671 262.24ZM80.047 260.76C80.847 260.76 81.5604 260.533 82.187 260.08C82.8137 259.613 83.307 258.953 83.667 258.1C84.027 257.233 84.2071 256.2 84.2071 255C84.2071 253.8 84.027 252.773 83.667 251.92C83.307 251.053 82.8137 250.393 82.187 249.94C81.5604 249.487 80.847 249.26 80.047 249.26C79.247 249.26 78.5271 249.487 77.8871 249.94C77.2605 250.393 76.767 251.053 76.407 251.92C76.0604 252.773 75.8871 253.8 75.8871 255C75.8871 256.2 76.0604 257.233 76.407 258.1C76.767 258.953 77.2605 259.613 77.8871 260.08C78.5271 260.533 79.247 260.76 80.047 260.76Z" fill="#737373"/>
<path d="M62.28 300V298.82C63.2267 298.073 64.1267 297.32 64.98 296.56C65.8467 295.8 66.6133 295.047 67.28 294.3C67.9467 293.54 68.4667 292.8 68.84 292.08C69.2267 291.36 69.42 290.667 69.42 290C69.42 289.507 69.3333 289.053 69.16 288.64C68.9867 288.213 68.7067 287.867 68.32 287.6C67.9467 287.333 67.44 287.2 66.8 287.2C66.1733 287.2 65.6533 287.34 65.24 287.62C64.8267 287.887 64.5133 288.247 64.3 288.7C64.1 289.14 64 289.627 64 290.16H62.38C62.3933 289.24 62.5867 288.453 62.96 287.8C63.3467 287.133 63.8733 286.627 64.54 286.28C65.2067 285.933 65.9667 285.76 66.82 285.76C67.66 285.76 68.4 285.92 69.04 286.24C69.68 286.547 70.18 287.007 70.54 287.62C70.9133 288.233 71.1 289.007 71.1 289.94C71.1 290.593 70.96 291.247 70.68 291.9C70.4133 292.553 70.0533 293.193 69.6 293.82C69.1467 294.433 68.64 295.027 68.08 295.6C67.5333 296.173 66.9667 296.713 66.38 297.22C65.8067 297.727 65.2667 298.187 64.76 298.6H71.58V300H62.28ZM78.7434 300.24C77.7834 300.24 76.9501 300.067 76.2434 299.72C75.5501 299.373 74.9968 298.9 74.5834 298.3C74.1834 297.7 73.9301 297.027 73.8234 296.28H75.4634C75.6234 297.027 75.9901 297.633 76.5634 298.1C77.1368 298.567 77.8701 298.8 78.7634 298.8C79.4301 298.8 79.9968 298.647 80.4634 298.34C80.9434 298.033 81.3101 297.613 81.5634 297.08C81.8301 296.547 81.9634 295.953 81.9634 295.3C81.9634 294.62 81.8301 294.02 81.5634 293.5C81.2968 292.98 80.9301 292.58 80.4634 292.3C79.9968 292.007 79.4501 291.86 78.8234 291.86C78.0634 291.86 77.4168 292.027 76.8834 292.36C76.3501 292.693 75.9501 293.12 75.6834 293.64H74.0634L75.2234 286H82.6234V287.46H76.5234L75.7434 291.76C76.0768 291.373 76.5168 291.06 77.0634 290.82C77.6234 290.567 78.2701 290.44 79.0034 290.44C79.6968 290.44 80.3234 290.56 80.8834 290.8C81.4434 291.04 81.9234 291.38 82.3234 291.82C82.7234 292.26 83.0301 292.773 83.2434 293.36C83.4701 293.947 83.5834 294.587 83.5834 295.28C83.5834 295.96 83.4701 296.6 83.2434 297.2C83.0301 297.787 82.7168 298.313 82.3034 298.78C81.8901 299.233 81.3834 299.593 80.7834 299.86C80.1834 300.113 79.5034 300.24 78.7434 300.24Z" fill="#737373"/>
<path d="M67.86 338.24C66.6333 338.24 65.5733 337.94 64.68 337.34C63.8 336.727 63.1267 335.88 62.66 334.8C62.1933 333.707 61.96 332.44 61.96 331C61.96 329.56 62.1933 328.3 62.66 327.22C63.1267 326.127 63.8 325.28 64.68 324.68C65.5733 324.067 66.6333 323.76 67.86 323.76C69.0867 323.76 70.1333 324.067 71 324.68C71.88 325.28 72.5533 326.127 73.02 327.22C73.4867 328.3 73.72 329.56 73.72 331C73.72 332.44 73.4867 333.707 73.02 334.8C72.5533 335.88 71.88 336.727 71 337.34C70.1333 337.94 69.0867 338.24 67.86 338.24ZM67.84 336.76C68.64 336.76 69.3533 336.533 69.98 336.08C70.6067 335.613 71.1 334.953 71.46 334.1C71.82 333.233 72 332.2 72 331C72 329.8 71.82 328.773 71.46 327.92C71.1 327.053 70.6067 326.393 69.98 325.94C69.3533 325.487 68.64 325.26 67.84 325.26C67.04 325.26 66.32 325.487 65.68 325.94C65.0533 326.393 64.56 327.053 64.2 327.92C63.8533 328.773 63.68 329.8 63.68 331C63.68 332.2 63.8533 333.233 64.2 334.1C64.56 334.953 65.0533 335.613 65.68 336.08C66.32 336.533 67.04 336.76 67.84 336.76Z" fill="#737373"/>
<path d="M63.9001 398L72.0401 384H73.7201L65.5801 398H63.9001ZM72.7201 398.24C72.1201 398.24 71.5801 398.107 71.1001 397.84C70.6201 397.56 70.2334 397.167 69.9401 396.66C69.6601 396.153 69.5201 395.56 69.5201 394.88C69.5201 394.187 69.6601 393.593 69.9401 393.1C70.2334 392.593 70.6201 392.207 71.1001 391.94C71.5801 391.66 72.1201 391.52 72.7201 391.52C73.3334 391.52 73.8734 391.66 74.3401 391.94C74.8201 392.207 75.2001 392.593 75.4801 393.1C75.7601 393.593 75.9001 394.187 75.9001 394.88C75.9001 395.56 75.7601 396.153 75.4801 396.66C75.2001 397.167 74.8201 397.56 74.3401 397.84C73.8601 398.107 73.3201 398.24 72.7201 398.24ZM72.7001 396.94C73.0201 396.94 73.3134 396.867 73.5801 396.72C73.8468 396.56 74.0601 396.327 74.2201 396.02C74.3934 395.713 74.4801 395.333 74.4801 394.88C74.4801 394.413 74.4001 394.027 74.2401 393.72C74.0801 393.413 73.8668 393.187 73.6001 393.04C73.3334 392.88 73.0401 392.8 72.7201 392.8C72.4134 392.8 72.1201 392.88 71.8401 393.04C71.5734 393.187 71.3534 393.413 71.1801 393.72C71.0201 394.027 70.9401 394.413 70.9401 394.88C70.9401 395.333 71.0201 395.713 71.1801 396.02C71.3534 396.327 71.5734 396.56 71.8401 396.72C72.1068 396.867 72.3934 396.94 72.7001 396.94ZM65.0201 390.5C64.4201 390.5 63.8801 390.367 63.4001 390.1C62.9201 389.82 62.5334 389.427 62.2401 388.92C61.9601 388.413 61.8201 387.82 61.8201 387.14C61.8201 386.447 61.9601 385.853 62.2401 385.36C62.5334 384.853 62.9201 384.467 63.4001 384.2C63.8934 383.92 64.4401 383.78 65.0401 383.78C65.6401 383.78 66.1801 383.92 66.6601 384.2C67.1401 384.467 67.5201 384.853 67.8001 385.36C68.0801 385.853 68.2201 386.447 68.2201 387.14C68.2201 387.82 68.0801 388.413 67.8001 388.92C67.5201 389.427 67.1334 389.82 66.6401 390.1C66.1601 390.367 65.6201 390.5 65.0201 390.5ZM65.0201 389.2C65.3401 389.2 65.6334 389.127 65.9001 388.98C66.1668 388.82 66.3801 388.587 66.5401 388.28C66.7001 387.973 66.7801 387.593 66.7801 387.14C66.7801 386.673 66.7001 386.287 66.5401 385.98C66.3801 385.66 66.1668 385.427 65.9001 385.28C65.6334 385.12 65.3468 385.04 65.0401 385.04C64.7334 385.04 64.4401 385.12 64.1601 385.28C63.8801 385.427 63.6534 385.66 63.4801 385.98C63.3201 386.287 63.2401 386.673 63.2401 387.14C63.2401 387.593 63.3201 387.973 63.4801 388.28C63.6534 388.587 63.8734 388.82 64.1401 388.98C64.4201 389.127 64.7134 389.2 65.0201 389.2Z" fill="#737373"/>
<path d="M167.78 398V385.38H163.6V384H173.64V385.38H169.46V398H167.78ZM178.314 398.24C177.381 398.24 176.541 398.027 175.794 397.6C175.047 397.16 174.461 396.547 174.034 395.76C173.607 394.96 173.394 394.033 173.394 392.98C173.394 391.9 173.607 390.967 174.034 390.18C174.474 389.38 175.067 388.767 175.814 388.34C176.574 387.9 177.421 387.68 178.354 387.68C179.314 387.68 180.161 387.9 180.894 388.34C181.641 388.767 182.227 389.38 182.654 390.18C183.094 390.967 183.314 391.893 183.314 392.96C183.314 394.027 183.094 394.96 182.654 395.76C182.214 396.547 181.621 397.16 180.874 397.6C180.127 398.027 179.274 398.24 178.314 398.24ZM178.334 396.8C178.907 396.8 179.441 396.66 179.934 396.38C180.427 396.087 180.827 395.653 181.134 395.08C181.441 394.507 181.594 393.8 181.594 392.96C181.594 392.107 181.441 391.4 181.134 390.84C180.841 390.267 180.447 389.84 179.954 389.56C179.474 389.267 178.941 389.12 178.354 389.12C177.794 389.12 177.261 389.267 176.754 389.56C176.261 389.84 175.861 390.267 175.554 390.84C175.261 391.4 175.114 392.107 175.114 392.96C175.114 393.8 175.261 394.507 175.554 395.08C175.861 395.653 176.254 396.087 176.734 396.38C177.227 396.66 177.761 396.8 178.334 396.8ZM190.11 398.24C189.136 398.24 188.283 398.013 187.55 397.56C186.816 397.093 186.25 396.46 185.85 395.66C185.45 394.86 185.25 393.953 185.25 392.94C185.25 391.927 185.45 391.027 185.85 390.24C186.25 389.44 186.816 388.813 187.55 388.36C188.296 387.907 189.156 387.68 190.13 387.68C190.956 387.68 191.676 387.847 192.29 388.18C192.916 388.513 193.396 388.98 193.73 389.58V383.6H195.41V398H193.89L193.75 396.34C193.536 396.673 193.263 396.987 192.93 397.28C192.596 397.56 192.196 397.793 191.73 397.98C191.263 398.153 190.723 398.24 190.11 398.24ZM190.31 396.78C190.976 396.78 191.563 396.62 192.07 396.3C192.576 395.98 192.97 395.54 193.25 394.98C193.53 394.407 193.67 393.733 193.67 392.96C193.67 392.2 193.53 391.533 193.25 390.96C192.97 390.387 192.576 389.94 192.07 389.62C191.563 389.3 190.976 389.14 190.31 389.14C189.656 389.14 189.076 389.3 188.57 389.62C188.063 389.94 187.67 390.387 187.39 390.96C187.11 391.533 186.97 392.2 186.97 392.96C186.97 393.733 187.11 394.407 187.39 394.98C187.67 395.54 188.063 395.98 188.57 396.3C189.076 396.62 189.656 396.78 190.31 396.78ZM201.489 398.24C200.675 398.24 199.995 398.1 199.449 397.82C198.902 397.527 198.495 397.147 198.229 396.68C197.962 396.2 197.829 395.68 197.829 395.12C197.829 394.44 198.002 393.867 198.349 393.4C198.709 392.92 199.209 392.56 199.849 392.32C200.502 392.067 201.269 391.94 202.149 391.94H204.809C204.809 391.313 204.709 390.793 204.509 390.38C204.322 389.953 204.042 389.633 203.669 389.42C203.309 389.207 202.855 389.1 202.309 389.1C201.669 389.1 201.115 389.26 200.649 389.58C200.182 389.9 199.895 390.373 199.789 391H198.069C198.149 390.28 198.389 389.68 198.789 389.2C199.202 388.707 199.722 388.333 200.349 388.08C200.975 387.813 201.629 387.68 202.309 387.68C203.242 387.68 204.015 387.853 204.629 388.2C205.255 388.533 205.722 389.007 206.029 389.62C206.335 390.22 206.489 390.933 206.489 391.76V398H204.989L204.889 396.22C204.755 396.5 204.582 396.767 204.369 397.02C204.169 397.26 203.929 397.473 203.649 397.66C203.369 397.833 203.049 397.973 202.689 398.08C202.342 398.187 201.942 398.24 201.489 398.24ZM201.749 396.82C202.215 396.82 202.635 396.727 203.009 396.54C203.395 396.34 203.722 396.073 203.989 395.74C204.255 395.393 204.455 395.013 204.589 394.6C204.735 394.187 204.809 393.753 204.809 393.3V393.24H202.289C201.635 393.24 201.109 393.32 200.709 393.48C200.309 393.627 200.022 393.84 199.849 394.12C199.675 394.387 199.589 394.693 199.589 395.04C199.589 395.4 199.669 395.713 199.829 395.98C200.002 396.247 200.249 396.453 200.569 396.6C200.902 396.747 201.295 396.82 201.749 396.82ZM209.895 402.4L212.355 396.88H211.775L207.815 387.92H209.635L212.915 395.62L216.355 387.92H218.095L211.655 402.4H209.895Z" fill="#A3A3A3"/>
<path d="M291.78 398V385.38H287.6V384H297.64V385.38H293.46V398H291.78ZM301.407 398.24C300.593 398.24 299.913 398.1 299.367 397.82C298.82 397.527 298.413 397.147 298.147 396.68C297.88 396.2 297.747 395.68 297.747 395.12C297.747 394.44 297.92 393.867 298.267 393.4C298.627 392.92 299.127 392.56 299.767 392.32C300.42 392.067 301.187 391.94 302.067 391.94H304.727C304.727 391.313 304.627 390.793 304.427 390.38C304.24 389.953 303.96 389.633 303.587 389.42C303.227 389.207 302.773 389.1 302.227 389.1C301.587 389.1 301.033 389.26 300.567 389.58C300.1 389.9 299.813 390.373 299.707 391H297.987C298.067 390.28 298.307 389.68 298.707 389.2C299.12 388.707 299.64 388.333 300.267 388.08C300.893 387.813 301.547 387.68 302.227 387.68C303.16 387.68 303.933 387.853 304.547 388.2C305.173 388.533 305.64 389.007 305.947 389.62C306.253 390.22 306.407 390.933 306.407 391.76V398H304.907L304.807 396.22C304.673 396.5 304.5 396.767 304.287 397.02C304.087 397.26 303.847 397.473 303.567 397.66C303.287 397.833 302.967 397.973 302.607 398.08C302.26 398.187 301.86 398.24 301.407 398.24ZM301.667 396.82C302.133 396.82 302.553 396.727 302.927 396.54C303.313 396.34 303.64 396.073 303.907 395.74C304.173 395.393 304.373 395.013 304.507 394.6C304.653 394.187 304.727 393.753 304.727 393.3V393.24H302.207C301.553 393.24 301.027 393.32 300.627 393.48C300.227 393.627 299.94 393.84 299.767 394.12C299.593 394.387 299.507 394.693 299.507 395.04C299.507 395.4 299.587 395.713 299.747 395.98C299.92 396.247 300.167 396.453 300.487 396.6C300.82 396.747 301.213 396.82 301.667 396.82ZM309.005 398V387.92H310.525L310.645 389.84C310.872 389.387 311.159 389 311.505 388.68C311.865 388.36 312.292 388.113 312.785 387.94C313.292 387.767 313.865 387.68 314.505 387.68V389.44H313.885C313.459 389.44 313.052 389.5 312.665 389.62C312.279 389.727 311.932 389.907 311.625 390.16C311.332 390.413 311.099 390.76 310.925 391.2C310.765 391.627 310.685 392.16 310.685 392.8V398H309.005ZM320.153 402.64C319.247 402.64 318.44 402.52 317.733 402.28C317.04 402.053 316.5 401.7 316.113 401.22C315.727 400.74 315.533 400.147 315.533 399.44C315.533 399.133 315.593 398.807 315.713 398.46C315.847 398.113 316.067 397.773 316.373 397.44C316.693 397.107 317.14 396.807 317.713 396.54L318.873 397.22C318.167 397.513 317.707 397.847 317.493 398.22C317.28 398.607 317.173 398.96 317.173 399.28C317.173 399.72 317.3 400.087 317.553 400.38C317.807 400.673 318.16 400.893 318.613 401.04C319.067 401.187 319.58 401.26 320.153 401.26C320.727 401.26 321.22 401.18 321.633 401.02C322.047 400.86 322.367 400.633 322.593 400.34C322.82 400.047 322.933 399.7 322.933 399.3C322.933 398.833 322.76 398.44 322.413 398.12C322.067 397.813 321.407 397.633 320.433 397.58C319.647 397.527 318.987 397.453 318.453 397.36C317.92 397.267 317.48 397.16 317.133 397.04C316.787 396.907 316.493 396.76 316.253 396.6C316.027 396.44 315.82 396.273 315.633 396.1V395.64L317.573 393.72L319.033 394.24L317.033 396.04L317.293 395.34C317.44 395.447 317.58 395.547 317.713 395.64C317.847 395.733 318.027 395.813 318.253 395.88C318.48 395.947 318.793 396.007 319.193 396.06C319.607 396.113 320.147 396.167 320.813 396.22C321.733 396.287 322.467 396.447 323.013 396.7C323.573 396.953 323.973 397.293 324.213 397.72C324.467 398.147 324.593 398.653 324.593 399.24C324.593 399.813 324.433 400.353 324.113 400.86C323.807 401.38 323.327 401.807 322.673 402.14C322.02 402.473 321.18 402.64 320.153 402.64ZM320.133 394.84C319.293 394.84 318.573 394.68 317.973 394.36C317.387 394.04 316.94 393.613 316.633 393.08C316.327 392.533 316.173 391.927 316.173 391.26C316.173 390.593 316.327 389.993 316.633 389.46C316.953 388.927 317.407 388.5 317.993 388.18C318.58 387.847 319.293 387.68 320.133 387.68C320.973 387.68 321.687 387.847 322.273 388.18C322.86 388.5 323.307 388.927 323.613 389.46C323.92 389.993 324.073 390.593 324.073 391.26C324.073 391.927 323.92 392.533 323.613 393.08C323.307 393.613 322.86 394.04 322.273 394.36C321.687 394.68 320.973 394.84 320.133 394.84ZM320.133 393.46C320.853 393.46 321.42 393.273 321.833 392.9C322.247 392.527 322.453 391.98 322.453 391.26C322.453 390.553 322.247 390.013 321.833 389.64C321.42 389.267 320.853 389.08 320.133 389.08C319.427 389.08 318.853 389.267 318.413 389.64C317.987 390.013 317.773 390.553 317.773 391.26C317.773 391.98 317.987 392.527 318.413 392.9C318.84 393.273 319.413 393.46 320.133 393.46ZM321.773 389.34L321.273 387.92H325.393V389.18L321.773 389.34ZM331.355 398.24C330.408 398.24 329.568 398.02 328.835 397.58C328.115 397.14 327.548 396.527 327.135 395.74C326.722 394.94 326.515 394.013 326.515 392.96C326.515 391.893 326.715 390.967 327.115 390.18C327.528 389.393 328.102 388.78 328.835 388.34C329.582 387.9 330.435 387.68 331.395 387.68C332.382 387.68 333.215 387.9 333.895 388.34C334.588 388.78 335.115 389.36 335.475 390.08C335.848 390.787 336.035 391.567 336.035 392.42C336.035 392.553 336.035 392.693 336.035 392.84C336.035 392.987 336.028 393.153 336.015 393.34H327.775V392.04H334.395C334.355 391.12 334.048 390.4 333.475 389.88C332.915 389.36 332.208 389.1 331.355 389.1C330.782 389.1 330.248 389.233 329.755 389.5C329.275 389.753 328.888 390.133 328.595 390.64C328.302 391.133 328.155 391.753 328.155 392.5V393.06C328.155 393.887 328.302 394.58 328.595 395.14C328.902 395.7 329.295 396.12 329.775 396.4C330.268 396.68 330.795 396.82 331.355 396.82C332.062 396.82 332.642 396.667 333.095 396.36C333.562 396.04 333.895 395.613 334.095 395.08H335.755C335.595 395.68 335.315 396.22 334.915 396.7C334.515 397.18 334.015 397.56 333.415 397.84C332.828 398.107 332.142 398.24 331.355 398.24ZM341.93 398C341.33 398 340.81 397.907 340.37 397.72C339.93 397.533 339.59 397.22 339.35 396.78C339.124 396.327 339.01 395.72 339.01 394.96V389.34H337.25V387.92H339.01L339.23 385.48H340.69V387.92H343.61V389.34H340.69V394.96C340.69 395.587 340.817 396.013 341.07 396.24C341.324 396.453 341.77 396.56 342.41 396.56H343.49V398H341.93Z" fill="#A3A3A3"/>
<path d="M404.78 398V385.38H400.6V384H410.64V385.38H406.46V398H404.78ZM412.611 398V383.6H414.291V389.62C414.624 389.02 415.091 388.547 415.691 388.2C416.304 387.853 416.971 387.68 417.691 387.68C418.464 387.68 419.138 387.84 419.711 388.16C420.284 388.467 420.724 388.94 421.031 389.58C421.338 390.22 421.491 391.027 421.491 392V398H419.831V392.18C419.831 391.167 419.618 390.407 419.191 389.9C418.764 389.38 418.144 389.12 417.331 389.12C416.758 389.12 416.238 389.26 415.771 389.54C415.318 389.82 414.958 390.22 414.691 390.74C414.424 391.26 414.291 391.9 414.291 392.66V398H412.611ZM424.275 398V387.92H425.955V398H424.275ZM425.115 385.78C424.782 385.78 424.502 385.673 424.275 385.46C424.062 385.233 423.955 384.953 423.955 384.62C423.955 384.287 424.062 384.02 424.275 383.82C424.502 383.607 424.782 383.5 425.115 383.5C425.435 383.5 425.708 383.607 425.935 383.82C426.162 384.02 426.275 384.287 426.275 384.62C426.275 384.953 426.162 385.233 425.935 385.46C425.708 385.673 425.435 385.78 425.115 385.78ZM432.72 398.24C431.88 398.24 431.146 398.1 430.52 397.82C429.906 397.54 429.413 397.153 429.04 396.66C428.68 396.153 428.46 395.56 428.38 394.88H430.1C430.166 395.227 430.306 395.547 430.52 395.84C430.733 396.133 431.02 396.373 431.38 396.56C431.753 396.733 432.206 396.82 432.74 396.82C433.206 396.82 433.593 396.753 433.9 396.62C434.206 396.473 434.433 396.28 434.58 396.04C434.74 395.8 434.82 395.54 434.82 395.26C434.82 394.847 434.72 394.533 434.52 394.32C434.333 394.107 434.053 393.94 433.68 393.82C433.306 393.687 432.853 393.573 432.32 393.48C431.88 393.4 431.446 393.293 431.02 393.16C430.593 393.027 430.213 392.853 429.88 392.64C429.546 392.413 429.28 392.14 429.08 391.82C428.893 391.5 428.8 391.107 428.8 390.64C428.8 390.067 428.946 389.56 429.24 389.12C429.533 388.667 429.953 388.313 430.5 388.06C431.06 387.807 431.706 387.68 432.44 387.68C433.52 387.68 434.393 387.94 435.06 388.46C435.726 388.98 436.12 389.733 436.24 390.72H434.58C434.513 390.213 434.293 389.82 433.92 389.54C433.56 389.247 433.06 389.1 432.42 389.1C431.793 389.1 431.313 389.227 430.98 389.48C430.66 389.733 430.5 390.067 430.5 390.48C430.5 390.747 430.586 390.987 430.76 391.2C430.946 391.4 431.213 391.573 431.56 391.72C431.92 391.867 432.36 391.987 432.88 392.08C433.546 392.2 434.153 392.36 434.7 392.56C435.246 392.76 435.686 393.06 436.02 393.46C436.366 393.847 436.54 394.4 436.54 395.12C436.54 395.747 436.38 396.293 436.06 396.76C435.753 397.227 435.313 397.593 434.74 397.86C434.166 398.113 433.493 398.24 432.72 398.24ZM446.311 398L443.351 387.92H445.031L447.331 396.42H447.031L449.531 387.92H451.431L453.971 396.4L453.651 396.42L455.931 387.92H457.631L454.691 398H452.971L450.331 389.12H450.671L448.031 398H446.311ZM463.574 398.24C462.627 398.24 461.787 398.02 461.054 397.58C460.334 397.14 459.767 396.527 459.354 395.74C458.941 394.94 458.734 394.013 458.734 392.96C458.734 391.893 458.934 390.967 459.334 390.18C459.747 389.393 460.321 388.78 461.054 388.34C461.801 387.9 462.654 387.68 463.614 387.68C464.601 387.68 465.434 387.9 466.114 388.34C466.807 388.78 467.334 389.36 467.694 390.08C468.067 390.787 468.254 391.567 468.254 392.42C468.254 392.553 468.254 392.693 468.254 392.84C468.254 392.987 468.247 393.153 468.234 393.34H459.994V392.04H466.614C466.574 391.12 466.267 390.4 465.694 389.88C465.134 389.36 464.427 389.1 463.574 389.1C463.001 389.1 462.467 389.233 461.974 389.5C461.494 389.753 461.107 390.133 460.814 390.64C460.521 391.133 460.374 391.753 460.374 392.5V393.06C460.374 393.887 460.521 394.58 460.814 395.14C461.121 395.7 461.514 396.12 461.994 396.4C462.487 396.68 463.014 396.82 463.574 396.82C464.281 396.82 464.861 396.667 465.314 396.36C465.781 396.04 466.114 395.613 466.314 395.08H467.974C467.814 395.68 467.534 396.22 467.134 396.7C466.734 397.18 466.234 397.56 465.634 397.84C465.047 398.107 464.361 398.24 463.574 398.24ZM474.941 398.24C473.994 398.24 473.154 398.02 472.421 397.58C471.701 397.14 471.134 396.527 470.721 395.74C470.308 394.94 470.101 394.013 470.101 392.96C470.101 391.893 470.301 390.967 470.701 390.18C471.114 389.393 471.688 388.78 472.421 388.34C473.168 387.9 474.021 387.68 474.981 387.68C475.968 387.68 476.801 387.9 477.481 388.34C478.174 388.78 478.701 389.36 479.061 390.08C479.434 390.787 479.621 391.567 479.621 392.42C479.621 392.553 479.621 392.693 479.621 392.84C479.621 392.987 479.614 393.153 479.601 393.34H471.361V392.04H477.981C477.941 391.12 477.634 390.4 477.061 389.88C476.501 389.36 475.794 389.1 474.941 389.1C474.368 389.1 473.834 389.233 473.341 389.5C472.861 389.753 472.474 390.133 472.181 390.64C471.888 391.133 471.741 391.753 471.741 392.5V393.06C471.741 393.887 471.888 394.58 472.181 395.14C472.488 395.7 472.881 396.12 473.361 396.4C473.854 396.68 474.381 396.82 474.941 396.82C475.648 396.82 476.228 396.667 476.681 396.36C477.148 396.04 477.481 395.613 477.681 395.08H479.341C479.181 395.68 478.901 396.22 478.501 396.7C478.101 397.18 477.601 397.56 477.001 397.84C476.414 398.107 475.728 398.24 474.941 398.24ZM488.088 398L483.288 392.48L487.668 387.92H489.728L484.708 393.08L484.728 391.88L490.228 398H488.088ZM481.888 398V383.6H483.568V398H481.888Z" fill="#A3A3A3"/>
<path d="M61 361.5H522" stroke="#262626"/>
<path d="M221 300H160C155.582 300 152 303.582 152 308V323C152 327.418 155.582 331 160 331H221C225.418 331 229 327.418 229 323V308C229 303.582 225.418 300 221 300Z" fill="url(#paint1_linear_70_197)" fill-opacity="0.2"/>
<path d="M221 300.5H160C155.858 300.5 152.5 303.858 152.5 308V323C152.5 327.142 155.858 330.5 160 330.5H221C225.142 330.5 228.5 327.142 228.5 323V308C228.5 303.858 225.142 300.5 221 300.5Z" stroke="#404040" stroke-opacity="0.8"/>
<path d="M346 242H285C280.582 242 277 245.582 277 250V323C277 327.418 280.582 331 285 331H346C350.418 331 354 327.418 354 323V250C354 245.582 350.418 242 346 242Z" fill="url(#paint2_linear_70_197)" fill-opacity="0.2"/>
<path d="M346 242.5H285C280.858 242.5 277.5 245.858 277.5 250V323C277.5 327.142 280.858 330.5 285 330.5H346C350.142 330.5 353.5 327.142 353.5 323V250C353.5 245.858 350.142 242.5 346 242.5Z" stroke="#404040" stroke-opacity="0.8"/>
<path d="M476 204H415C410.582 204 407 207.582 407 212V323C407 327.418 410.582 331 415 331H476C480.418 331 484 327.418 484 323V212C484 207.582 480.418 204 476 204Z" fill="url(#paint3_linear_70_197)" fill-opacity="0.2"/>
<path d="M476 204.5H415C410.858 204.5 407.5 207.858 407.5 212V323C407.5 327.142 410.858 330.5 415 330.5H476C480.142 330.5 483.5 327.142 483.5 323V212C483.5 207.858 480.142 204.5 476 204.5Z" stroke="#404040" stroke-opacity="0.8"/>
<g filter="url(#filter0_d_70_197)">
<path d="M253 231.5H379" stroke="white" stroke-width="2" stroke-linecap="round"/>
</g>
<path d="M588 144C588 135.163 595.163 128 604 128H1110C1118.84 128 1126 135.163 1126 144V422H588V144Z" fill="white" fill-opacity="0.02"/>
<mask id="mask2_70_197" style="mask-type:luminance" maskUnits="userSpaceOnUse" x="588" y="128" width="538" height="294">
<path d="M588 144C588 135.163 595.163 128 604 128H1110C1118.84 128 1126 135.163 1126 144V422H588V144Z" fill="white"/>
</mask>
<g mask="url(#mask2_70_197)">
<path d="M586 144C586 134.059 594.059 126 604 126H1110C1119.94 126 1128 134.059 1128 144H1124C1124 136.268 1117.73 130 1110 130H604C596.268 130 590 136.268 590 144H586ZM586 422V144C586 134.059 594.059 126 604 126V130C596.268 130 590 136.268 590 144V422H586ZM1110 126C1119.94 126 1128 134.059 1128 144V422H1124V144C1124 136.268 1117.73 130 1110 130V126Z" fill="#54174C" fill-opacity="0.2"/>
</g>
<path d="M631.04 186V173.88L628.64 174.48V173.28L631.6 172H632.74V186H631.04ZM641.09 186.24C639.864 186.24 638.804 185.94 637.91 185.34C637.03 184.727 636.357 183.88 635.89 182.8C635.424 181.707 635.19 180.44 635.19 179C635.19 177.56 635.424 176.3 635.89 175.22C636.357 174.127 637.03 173.28 637.91 172.68C638.804 172.067 639.864 171.76 641.09 171.76C642.317 171.76 643.364 172.067 644.23 172.68C645.11 173.28 645.784 174.127 646.25 175.22C646.717 176.3 646.95 177.56 646.95 179C646.95 180.44 646.717 181.707 646.25 182.8C645.784 183.88 645.11 184.727 644.23 185.34C643.364 185.94 642.317 186.24 641.09 186.24ZM641.07 184.76C641.87 184.76 642.584 184.533 643.21 184.08C643.837 183.613 644.33 182.953 644.69 182.1C645.05 181.233 645.23 180.2 645.23 179C645.23 177.8 645.05 176.773 644.69 175.92C644.33 175.053 643.837 174.393 643.21 173.94C642.584 173.487 641.87 173.26 641.07 173.26C640.27 173.26 639.55 173.487 638.91 173.94C638.284 174.393 637.79 175.053 637.43 175.92C637.084 176.773 636.91 177.8 636.91 179C636.91 180.2 637.084 181.233 637.43 182.1C637.79 182.953 638.284 183.613 638.91 184.08C639.55 184.533 640.27 184.76 641.07 184.76ZM654.762 186.24C653.536 186.24 652.476 185.94 651.582 185.34C650.702 184.727 650.029 183.88 649.562 182.8C649.096 181.707 648.862 180.44 648.862 179C648.862 177.56 649.096 176.3 649.562 175.22C650.029 174.127 650.702 173.28 651.582 172.68C652.476 172.067 653.536 171.76 654.762 171.76C655.989 171.76 657.036 172.067 657.902 172.68C658.782 173.28 659.456 174.127 659.922 175.22C660.389 176.3 660.622 177.56 660.622 179C660.622 180.44 660.389 181.707 659.922 182.8C659.456 183.88 658.782 184.727 657.902 185.34C657.036 185.94 655.989 186.24 654.762 186.24ZM654.742 184.76C655.542 184.76 656.256 184.533 656.882 184.08C657.509 183.613 658.002 182.953 658.362 182.1C658.722 181.233 658.902 180.2 658.902 179C658.902 177.8 658.722 176.773 658.362 175.92C658.002 175.053 657.509 174.393 656.882 173.94C656.256 173.487 655.542 173.26 654.742 173.26C653.942 173.26 653.222 173.487 652.582 173.94C651.956 174.393 651.462 175.053 651.102 175.92C650.756 176.773 650.582 177.8 650.582 179C650.582 180.2 650.756 181.233 651.102 182.1C651.462 182.953 651.956 183.613 652.582 184.08C653.222 184.533 653.942 184.76 654.742 184.76Z" fill="#737373"/>
<path d="M630.76 224L636.22 211.44H628.54V210H637.94V211.26L632.54 224H630.76ZM644.318 224.24C643.358 224.24 642.524 224.067 641.818 223.72C641.124 223.373 640.571 222.9 640.158 222.3C639.758 221.7 639.504 221.027 639.398 220.28H641.038C641.198 221.027 641.564 221.633 642.138 222.1C642.711 222.567 643.444 222.8 644.338 222.8C645.004 222.8 645.571 222.647 646.038 222.34C646.518 222.033 646.884 221.613 647.138 221.08C647.404 220.547 647.538 219.953 647.538 219.3C647.538 218.62 647.404 218.02 647.138 217.5C646.871 216.98 646.504 216.58 646.038 216.3C645.571 216.007 645.024 215.86 644.398 215.86C643.638 215.86 642.991 216.027 642.458 216.36C641.924 216.693 641.524 217.12 641.258 217.64H639.638L640.798 210H648.198V211.46H642.098L641.318 215.76C641.651 215.373 642.091 215.06 642.638 214.82C643.198 214.567 643.844 214.44 644.578 214.44C645.271 214.44 645.898 214.56 646.458 214.8C647.018 215.04 647.498 215.38 647.898 215.82C648.298 216.26 648.604 216.773 648.818 217.36C649.044 217.947 649.158 218.587 649.158 219.28C649.158 219.96 649.044 220.6 648.818 221.2C648.604 221.787 648.291 222.313 647.878 222.78C647.464 223.233 646.958 223.593 646.358 223.86C645.758 224.113 645.078 224.24 644.318 224.24Z" fill="#737373"/>
<path d="M634.22 262.24C633.26 262.24 632.427 262.067 631.72 261.72C631.027 261.373 630.473 260.9 630.06 260.3C629.66 259.7 629.407 259.027 629.3 258.28H630.94C631.1 259.027 631.467 259.633 632.04 260.1C632.613 260.567 633.347 260.8 634.24 260.8C634.907 260.8 635.473 260.647 635.94 260.34C636.42 260.033 636.787 259.613 637.04 259.08C637.307 258.547 637.44 257.953 637.44 257.3C637.44 256.62 637.307 256.02 637.04 255.5C636.773 254.98 636.407 254.58 635.94 254.3C635.473 254.007 634.927 253.86 634.3 253.86C633.54 253.86 632.893 254.027 632.36 254.36C631.827 254.693 631.427 255.12 631.16 255.64H629.54L630.7 248H638.1V249.46H632L631.22 253.76C631.553 253.373 631.993 253.06 632.54 252.82C633.1 252.567 633.747 252.44 634.48 252.44C635.173 252.44 635.8 252.56 636.36 252.8C636.92 253.04 637.4 253.38 637.8 253.82C638.2 254.26 638.507 254.773 638.72 255.36C638.947 255.947 639.06 256.587 639.06 257.28C639.06 257.96 638.947 258.6 638.72 259.2C638.507 259.787 638.193 260.313 637.78 260.78C637.367 261.233 636.86 261.593 636.26 261.86C635.66 262.113 634.98 262.24 634.22 262.24ZM647.067 262.24C645.84 262.24 644.78 261.94 643.887 261.34C643.007 260.727 642.334 259.88 641.867 258.8C641.4 257.707 641.167 256.44 641.167 255C641.167 253.56 641.4 252.3 641.867 251.22C642.334 250.127 643.007 249.28 643.887 248.68C644.78 248.067 645.84 247.76 647.067 247.76C648.294 247.76 649.34 248.067 650.207 248.68C651.087 249.28 651.76 250.127 652.227 251.22C652.694 252.3 652.927 253.56 652.927 255C652.927 256.44 652.694 257.707 652.227 258.8C651.76 259.88 651.087 260.727 650.207 261.34C649.34 261.94 648.294 262.24 647.067 262.24ZM647.047 260.76C647.847 260.76 648.56 260.533 649.187 260.08C649.814 259.613 650.307 258.953 650.667 258.1C651.027 257.233 651.207 256.2 651.207 255C651.207 253.8 651.027 252.773 650.667 251.92C650.307 251.053 649.814 250.393 649.187 249.94C648.56 249.487 647.847 249.26 647.047 249.26C646.247 249.26 645.527 249.487 644.887 249.94C644.26 250.393 643.767 251.053 643.407 251.92C643.06 252.773 642.887 253.8 642.887 255C642.887 256.2 643.06 257.233 643.407 258.1C643.767 258.953 644.26 259.613 644.887 260.08C645.527 260.533 646.247 260.76 647.047 260.76Z" fill="#737373"/>
<path d="M629.28 300V298.82C630.227 298.073 631.127 297.32 631.98 296.56C632.847 295.8 633.613 295.047 634.28 294.3C634.947 293.54 635.467 292.8 635.84 292.08C636.227 291.36 636.42 290.667 636.42 290C636.42 289.507 636.333 289.053 636.16 288.64C635.987 288.213 635.707 287.867 635.32 287.6C634.947 287.333 634.44 287.2 633.8 287.2C633.173 287.2 632.653 287.34 632.24 287.62C631.827 287.887 631.513 288.247 631.3 288.7C631.1 289.14 631 289.627 631 290.16H629.38C629.393 289.24 629.587 288.453 629.96 287.8C630.347 287.133 630.873 286.627 631.54 286.28C632.207 285.933 632.967 285.76 633.82 285.76C634.66 285.76 635.4 285.92 636.04 286.24C636.68 286.547 637.18 287.007 637.54 287.62C637.913 288.233 638.1 289.007 638.1 289.94C638.1 290.593 637.96 291.247 637.68 291.9C637.413 292.553 637.053 293.193 636.6 293.82C636.147 294.433 635.64 295.027 635.08 295.6C634.533 296.173 633.967 296.713 633.38 297.22C632.807 297.727 632.267 298.187 631.76 298.6H638.58V300H629.28ZM645.743 300.24C644.783 300.24 643.95 300.067 643.243 299.72C642.55 299.373 641.997 298.9 641.583 298.3C641.183 297.7 640.93 297.027 640.823 296.28H642.463C642.623 297.027 642.99 297.633 643.563 298.1C644.137 298.567 644.87 298.8 645.763 298.8C646.43 298.8 646.997 298.647 647.463 298.34C647.943 298.033 648.31 297.613 648.563 297.08C648.83 296.547 648.963 295.953 648.963 295.3C648.963 294.62 648.83 294.02 648.563 293.5C648.297 292.98 647.93 292.58 647.463 292.3C646.997 292.007 646.45 291.86 645.823 291.86C645.063 291.86 644.417 292.027 643.883 292.36C643.35 292.693 642.95 293.12 642.683 293.64H641.063L642.223 286H649.623V287.46H643.523L642.743 291.76C643.077 291.373 643.517 291.06 644.063 290.82C644.623 290.567 645.27 290.44 646.003 290.44C646.697 290.44 647.323 290.56 647.883 290.8C648.443 291.04 648.923 291.38 649.323 291.82C649.723 292.26 650.03 292.773 650.243 293.36C650.47 293.947 650.583 294.587 650.583 295.28C650.583 295.96 650.47 296.6 650.243 297.2C650.03 297.787 649.717 298.313 649.303 298.78C648.89 299.233 648.383 299.593 647.783 299.86C647.183 300.113 646.503 300.24 645.743 300.24Z" fill="#737373"/>
<path d="M634.86 338.24C633.633 338.24 632.573 337.94 631.68 337.34C630.8 336.727 630.127 335.88 629.66 334.8C629.193 333.707 628.96 332.44 628.96 331C628.96 329.56 629.193 328.3 629.66 327.22C630.127 326.127 630.8 325.28 631.68 324.68C632.573 324.067 633.633 323.76 634.86 323.76C636.087 323.76 637.133 324.067 638 324.68C638.88 325.28 639.553 326.127 640.02 327.22C640.487 328.3 640.72 329.56 640.72 331C640.72 332.44 640.487 333.707 640.02 334.8C639.553 335.88 638.88 336.727 638 337.34C637.133 337.94 636.087 338.24 634.86 338.24ZM634.84 336.76C635.64 336.76 636.353 336.533 636.98 336.08C637.607 335.613 638.1 334.953 638.46 334.1C638.82 333.233 639 332.2 639 331C639 329.8 638.82 328.773 638.46 327.92C638.1 327.053 637.607 326.393 636.98 325.94C636.353 325.487 635.64 325.26 634.84 325.26C634.04 325.26 633.32 325.487 632.68 325.94C632.053 326.393 631.56 327.053 631.2 327.92C630.853 328.773 630.68 329.8 630.68 331C630.68 332.2 630.853 333.233 631.2 334.1C631.56 334.953 632.053 335.613 632.68 336.08C633.32 336.533 634.04 336.76 634.84 336.76Z" fill="#737373"/>
<path d="M630.9 398L639.04 384H640.72L632.58 398H630.9ZM639.72 398.24C639.12 398.24 638.58 398.107 638.1 397.84C637.62 397.56 637.233 397.167 636.94 396.66C636.66 396.153 636.52 395.56 636.52 394.88C636.52 394.187 636.66 393.593 636.94 393.1C637.233 392.593 637.62 392.207 638.1 391.94C638.58 391.66 639.12 391.52 639.72 391.52C640.333 391.52 640.873 391.66 641.34 391.94C641.82 392.207 642.2 392.593 642.48 393.1C642.76 393.593 642.9 394.187 642.9 394.88C642.9 395.56 642.76 396.153 642.48 396.66C642.2 397.167 641.82 397.56 641.34 397.84C640.86 398.107 640.32 398.24 639.72 398.24ZM639.7 396.94C640.02 396.94 640.313 396.867 640.58 396.72C640.847 396.56 641.06 396.327 641.22 396.02C641.393 395.713 641.48 395.333 641.48 394.88C641.48 394.413 641.4 394.027 641.24 393.72C641.08 393.413 640.867 393.187 640.6 393.04C640.333 392.88 640.04 392.8 639.72 392.8C639.413 392.8 639.12 392.88 638.84 393.04C638.573 393.187 638.353 393.413 638.18 393.72C638.02 394.027 637.94 394.413 637.94 394.88C637.94 395.333 638.02 395.713 638.18 396.02C638.353 396.327 638.573 396.56 638.84 396.72C639.107 396.867 639.393 396.94 639.7 396.94ZM632.02 390.5C631.42 390.5 630.88 390.367 630.4 390.1C629.92 389.82 629.533 389.427 629.24 388.92C628.96 388.413 628.82 387.82 628.82 387.14C628.82 386.447 628.96 385.853 629.24 385.36C629.533 384.853 629.92 384.467 630.4 384.2C630.893 383.92 631.44 383.78 632.04 383.78C632.64 383.78 633.18 383.92 633.66 384.2C634.14 384.467 634.52 384.853 634.8 385.36C635.08 385.853 635.22 386.447 635.22 387.14C635.22 387.82 635.08 388.413 634.8 388.92C634.52 389.427 634.133 389.82 633.64 390.1C633.16 390.367 632.62 390.5 632.02 390.5ZM632.02 389.2C632.34 389.2 632.633 389.127 632.9 388.98C633.167 388.82 633.38 388.587 633.54 388.28C633.7 387.973 633.78 387.593 633.78 387.14C633.78 386.673 633.7 386.287 633.54 385.98C633.38 385.66 633.167 385.427 632.9 385.28C632.633 385.12 632.347 385.04 632.04 385.04C631.733 385.04 631.44 385.12 631.16 385.28C630.88 385.427 630.653 385.66 630.48 385.98C630.32 386.287 630.24 386.673 630.24 387.14C630.24 387.593 630.32 387.973 630.48 388.28C630.653 388.587 630.873 388.82 631.14 388.98C631.42 389.127 631.713 389.2 632.02 389.2Z" fill="#737373"/>
<path d="M734.78 398V385.38H730.6V384H740.64V385.38H736.46V398H734.78ZM745.314 398.24C744.381 398.24 743.541 398.027 742.794 397.6C742.047 397.16 741.461 396.547 741.034 395.76C740.607 394.96 740.394 394.033 740.394 392.98C740.394 391.9 740.607 390.967 741.034 390.18C741.474 389.38 742.067 388.767 742.814 388.34C743.574 387.9 744.421 387.68 745.354 387.68C746.314 387.68 747.161 387.9 747.894 388.34C748.641 388.767 749.227 389.38 749.654 390.18C750.094 390.967 750.314 391.893 750.314 392.96C750.314 394.027 750.094 394.96 749.654 395.76C749.214 396.547 748.621 397.16 747.874 397.6C747.127 398.027 746.274 398.24 745.314 398.24ZM745.334 396.8C745.907 396.8 746.441 396.66 746.934 396.38C747.427 396.087 747.827 395.653 748.134 395.08C748.441 394.507 748.594 393.8 748.594 392.96C748.594 392.107 748.441 391.4 748.134 390.84C747.841 390.267 747.447 389.84 746.954 389.56C746.474 389.267 745.941 389.12 745.354 389.12C744.794 389.12 744.261 389.267 743.754 389.56C743.261 389.84 742.861 390.267 742.554 390.84C742.261 391.4 742.114 392.107 742.114 392.96C742.114 393.8 742.261 394.507 742.554 395.08C742.861 395.653 743.254 396.087 743.734 396.38C744.227 396.66 744.761 396.8 745.334 396.8ZM757.11 398.24C756.136 398.24 755.283 398.013 754.55 397.56C753.816 397.093 753.25 396.46 752.85 395.66C752.45 394.86 752.25 393.953 752.25 392.94C752.25 391.927 752.45 391.027 752.85 390.24C753.25 389.44 753.816 388.813 754.55 388.36C755.296 387.907 756.156 387.68 757.13 387.68C757.956 387.68 758.676 387.847 759.29 388.18C759.916 388.513 760.396 388.98 760.73 389.58V383.6H762.41V398H760.89L760.75 396.34C760.536 396.673 760.263 396.987 759.93 397.28C759.596 397.56 759.196 397.793 758.73 397.98C758.263 398.153 757.723 398.24 757.11 398.24ZM757.31 396.78C757.976 396.78 758.563 396.62 759.07 396.3C759.576 395.98 759.97 395.54 760.25 394.98C760.53 394.407 760.67 393.733 760.67 392.96C760.67 392.2 760.53 391.533 760.25 390.96C759.97 390.387 759.576 389.94 759.07 389.62C758.563 389.3 757.976 389.14 757.31 389.14C756.656 389.14 756.076 389.3 755.57 389.62C755.063 389.94 754.67 390.387 754.39 390.96C754.11 391.533 753.97 392.2 753.97 392.96C753.97 393.733 754.11 394.407 754.39 394.98C754.67 395.54 755.063 395.98 755.57 396.3C756.076 396.62 756.656 396.78 757.31 396.78ZM768.489 398.24C767.675 398.24 766.995 398.1 766.449 397.82C765.902 397.527 765.495 397.147 765.229 396.68C764.962 396.2 764.829 395.68 764.829 395.12C764.829 394.44 765.002 393.867 765.349 393.4C765.709 392.92 766.209 392.56 766.849 392.32C767.502 392.067 768.269 391.94 769.149 391.94H771.809C771.809 391.313 771.709 390.793 771.509 390.38C771.322 389.953 771.042 389.633 770.669 389.42C770.309 389.207 769.855 389.1 769.309 389.1C768.669 389.1 768.115 389.26 767.649 389.58C767.182 389.9 766.895 390.373 766.789 391H765.069C765.149 390.28 765.389 389.68 765.789 389.2C766.202 388.707 766.722 388.333 767.349 388.08C767.975 387.813 768.629 387.68 769.309 387.68C770.242 387.68 771.015 387.853 771.629 388.2C772.255 388.533 772.722 389.007 773.029 389.62C773.335 390.22 773.489 390.933 773.489 391.76V398H771.989L771.889 396.22C771.755 396.5 771.582 396.767 771.369 397.02C771.169 397.26 770.929 397.473 770.649 397.66C770.369 397.833 770.049 397.973 769.689 398.08C769.342 398.187 768.942 398.24 768.489 398.24ZM768.749 396.82C769.215 396.82 769.635 396.727 770.009 396.54C770.395 396.34 770.722 396.073 770.989 395.74C771.255 395.393 771.455 395.013 771.589 394.6C771.735 394.187 771.809 393.753 771.809 393.3V393.24H769.289C768.635 393.24 768.109 393.32 767.709 393.48C767.309 393.627 767.022 393.84 766.849 394.12C766.675 394.387 766.589 394.693 766.589 395.04C766.589 395.4 766.669 395.713 766.829 395.98C767.002 396.247 767.249 396.453 767.569 396.6C767.902 396.747 768.295 396.82 768.749 396.82ZM776.895 402.4L779.355 396.88H778.775L774.815 387.92H776.635L779.915 395.62L783.355 387.92H785.095L778.655 402.4H776.895Z" fill="#A3A3A3"/>
<path d="M858.78 398V385.38H854.6V384H864.64V385.38H860.46V398H858.78ZM868.407 398.24C867.593 398.24 866.913 398.1 866.367 397.82C865.82 397.527 865.413 397.147 865.147 396.68C864.88 396.2 864.747 395.68 864.747 395.12C864.747 394.44 864.92 393.867 865.267 393.4C865.627 392.92 866.127 392.56 866.767 392.32C867.42 392.067 868.187 391.94 869.067 391.94H871.727C871.727 391.313 871.627 390.793 871.427 390.38C871.24 389.953 870.96 389.633 870.587 389.42C870.227 389.207 869.773 389.1 869.227 389.1C868.587 389.1 868.033 389.26 867.567 389.58C867.1 389.9 866.813 390.373 866.707 391H864.987C865.067 390.28 865.307 389.68 865.707 389.2C866.12 388.707 866.64 388.333 867.267 388.08C867.893 387.813 868.547 387.68 869.227 387.68C870.16 387.68 870.933 387.853 871.547 388.2C872.173 388.533 872.64 389.007 872.947 389.62C873.253 390.22 873.407 390.933 873.407 391.76V398H871.907L871.807 396.22C871.673 396.5 871.5 396.767 871.287 397.02C871.087 397.26 870.847 397.473 870.567 397.66C870.287 397.833 869.967 397.973 869.607 398.08C869.26 398.187 868.86 398.24 868.407 398.24ZM868.667 396.82C869.133 396.82 869.553 396.727 869.927 396.54C870.313 396.34 870.64 396.073 870.907 395.74C871.173 395.393 871.373 395.013 871.507 394.6C871.653 394.187 871.727 393.753 871.727 393.3V393.24H869.207C868.553 393.24 868.027 393.32 867.627 393.48C867.227 393.627 866.94 393.84 866.767 394.12C866.593 394.387 866.507 394.693 866.507 395.04C866.507 395.4 866.587 395.713 866.747 395.98C866.92 396.247 867.167 396.453 867.487 396.6C867.82 396.747 868.213 396.82 868.667 396.82ZM876.005 398V387.92H877.525L877.645 389.84C877.872 389.387 878.159 389 878.505 388.68C878.865 388.36 879.292 388.113 879.785 387.94C880.292 387.767 880.865 387.68 881.505 387.68V389.44H880.885C880.459 389.44 880.052 389.5 879.665 389.62C879.279 389.727 878.932 389.907 878.625 390.16C878.332 390.413 878.099 390.76 877.925 391.2C877.765 391.627 877.685 392.16 877.685 392.8V398H876.005ZM887.153 402.64C886.247 402.64 885.44 402.52 884.733 402.28C884.04 402.053 883.5 401.7 883.113 401.22C882.727 400.74 882.533 400.147 882.533 399.44C882.533 399.133 882.593 398.807 882.713 398.46C882.847 398.113 883.067 397.773 883.373 397.44C883.693 397.107 884.14 396.807 884.713 396.54L885.873 397.22C885.167 397.513 884.707 397.847 884.493 398.22C884.28 398.607 884.173 398.96 884.173 399.28C884.173 399.72 884.3 400.087 884.553 400.38C884.807 400.673 885.16 400.893 885.613 401.04C886.067 401.187 886.58 401.26 887.153 401.26C887.727 401.26 888.22 401.18 888.633 401.02C889.047 400.86 889.367 400.633 889.593 400.34C889.82 400.047 889.933 399.7 889.933 399.3C889.933 398.833 889.76 398.44 889.413 398.12C889.067 397.813 888.407 397.633 887.433 397.58C886.647 397.527 885.987 397.453 885.453 397.36C884.92 397.267 884.48 397.16 884.133 397.04C883.787 396.907 883.493 396.76 883.253 396.6C883.027 396.44 882.82 396.273 882.633 396.1V395.64L884.573 393.72L886.033 394.24L884.033 396.04L884.293 395.34C884.44 395.447 884.58 395.547 884.713 395.64C884.847 395.733 885.027 395.813 885.253 395.88C885.48 395.947 885.793 396.007 886.193 396.06C886.607 396.113 887.147 396.167 887.813 396.22C888.733 396.287 889.467 396.447 890.013 396.7C890.573 396.953 890.973 397.293 891.213 397.72C891.467 398.147 891.593 398.653 891.593 399.24C891.593 399.813 891.433 400.353 891.113 400.86C890.807 401.38 890.327 401.807 889.673 402.14C889.02 402.473 888.18 402.64 887.153 402.64ZM887.133 394.84C886.293 394.84 885.573 394.68 884.973 394.36C884.387 394.04 883.94 393.613 883.633 393.08C883.327 392.533 883.173 391.927 883.173 391.26C883.173 390.593 883.327 389.993 883.633 389.46C883.953 388.927 884.407 388.5 884.993 388.18C885.58 387.847 886.293 387.68 887.133 387.68C887.973 387.68 888.687 387.847 889.273 388.18C889.86 388.5 890.307 388.927 890.613 389.46C890.92 389.993 891.073 390.593 891.073 391.26C891.073 391.927 890.92 392.533 890.613 393.08C890.307 393.613 889.86 394.04 889.273 394.36C888.687 394.68 887.973 394.84 887.133 394.84ZM887.133 393.46C887.853 393.46 888.42 393.273 888.833 392.9C889.247 392.527 889.453 391.98 889.453 391.26C889.453 390.553 889.247 390.013 888.833 389.64C888.42 389.267 887.853 389.08 887.133 389.08C886.427 389.08 885.853 389.267 885.413 389.64C884.987 390.013 884.773 390.553 884.773 391.26C884.773 391.98 884.987 392.527 885.413 392.9C885.84 393.273 886.413 393.46 887.133 393.46ZM888.773 389.34L888.273 387.92H892.393V389.18L888.773 389.34ZM898.355 398.24C897.408 398.24 896.568 398.02 895.835 397.58C895.115 397.14 894.548 396.527 894.135 395.74C893.722 394.94 893.515 394.013 893.515 392.96C893.515 391.893 893.715 390.967 894.115 390.18C894.528 389.393 895.102 388.78 895.835 388.34C896.582 387.9 897.435 387.68 898.395 387.68C899.382 387.68 900.215 387.9 900.895 388.34C901.588 388.78 902.115 389.36 902.475 390.08C902.848 390.787 903.035 391.567 903.035 392.42C903.035 392.553 903.035 392.693 903.035 392.84C903.035 392.987 903.028 393.153 903.015 393.34H894.775V392.04H901.395C901.355 391.12 901.048 390.4 900.475 389.88C899.915 389.36 899.208 389.1 898.355 389.1C897.782 389.1 897.248 389.233 896.755 389.5C896.275 389.753 895.888 390.133 895.595 390.64C895.302 391.133 895.155 391.753 895.155 392.5V393.06C895.155 393.887 895.302 394.58 895.595 395.14C895.902 395.7 896.295 396.12 896.775 396.4C897.268 396.68 897.795 396.82 898.355 396.82C899.062 396.82 899.642 396.667 900.095 396.36C900.562 396.04 900.895 395.613 901.095 395.08H902.755C902.595 395.68 902.315 396.22 901.915 396.7C901.515 397.18 901.015 397.56 900.415 397.84C899.828 398.107 899.142 398.24 898.355 398.24ZM908.93 398C908.33 398 907.81 397.907 907.37 397.72C906.93 397.533 906.59 397.22 906.35 396.78C906.124 396.327 906.01 395.72 906.01 394.96V389.34H904.25V387.92H906.01L906.23 385.48H907.69V387.92H910.61V389.34H907.69V394.96C907.69 395.587 907.817 396.013 908.07 396.24C908.324 396.453 908.77 396.56 909.41 396.56H910.49V398H908.93Z" fill="#A3A3A3"/>
<path d="M971.78 398V385.38H967.6V384H977.64V385.38H973.46V398H971.78ZM979.611 398V383.6H981.291V389.62C981.624 389.02 982.091 388.547 982.691 388.2C983.304 387.853 983.971 387.68 984.691 387.68C985.464 387.68 986.138 387.84 986.711 388.16C987.284 388.467 987.724 388.94 988.031 389.58C988.338 390.22 988.491 391.027 988.491 392V398H986.831V392.18C986.831 391.167 986.618 390.407 986.191 389.9C985.764 389.38 985.144 389.12 984.331 389.12C983.758 389.12 983.238 389.26 982.771 389.54C982.318 389.82 981.958 390.22 981.691 390.74C981.424 391.26 981.291 391.9 981.291 392.66V398H979.611ZM991.275 398V387.92H992.955V398H991.275ZM992.115 385.78C991.782 385.78 991.502 385.673 991.275 385.46C991.062 385.233 990.955 384.953 990.955 384.62C990.955 384.287 991.062 384.02 991.275 383.82C991.502 383.607 991.782 383.5 992.115 383.5C992.435 383.5 992.708 383.607 992.935 383.82C993.162 384.02 993.275 384.287 993.275 384.62C993.275 384.953 993.162 385.233 992.935 385.46C992.708 385.673 992.435 385.78 992.115 385.78ZM999.72 398.24C998.88 398.24 998.146 398.1 997.52 397.82C996.906 397.54 996.413 397.153 996.04 396.66C995.68 396.153 995.46 395.56 995.38 394.88H997.1C997.166 395.227 997.306 395.547 997.52 395.84C997.733 396.133 998.02 396.373 998.38 396.56C998.753 396.733 999.206 396.82 999.74 396.82C1000.21 396.82 1000.59 396.753 1000.9 396.62C1001.21 396.473 1001.43 396.28 1001.58 396.04C1001.74 395.8 1001.82 395.54 1001.82 395.26C1001.82 394.847 1001.72 394.533 1001.52 394.32C1001.33 394.107 1001.05 393.94 1000.68 393.82C1000.31 393.687 999.853 393.573 999.32 393.48C998.88 393.4 998.446 393.293 998.02 393.16C997.593 393.027 997.213 392.853 996.88 392.64C996.546 392.413 996.28 392.14 996.08 391.82C995.893 391.5 995.8 391.107 995.8 390.64C995.8 390.067 995.946 389.56 996.24 389.12C996.533 388.667 996.953 388.313 997.5 388.06C998.06 387.807 998.706 387.68 999.44 387.68C1000.52 387.68 1001.39 387.94 1002.06 388.46C1002.73 388.98 1003.12 389.733 1003.24 390.72H1001.58C1001.51 390.213 1001.29 389.82 1000.92 389.54C1000.56 389.247 1000.06 389.1 999.42 389.1C998.793 389.1 998.313 389.227 997.98 389.48C997.66 389.733 997.5 390.067 997.5 390.48C997.5 390.747 997.586 390.987 997.76 391.2C997.946 391.4 998.213 391.573 998.56 391.72C998.92 391.867 999.36 391.987 999.88 392.08C1000.55 392.2 1001.15 392.36 1001.7 392.56C1002.25 392.76 1002.69 393.06 1003.02 393.46C1003.37 393.847 1003.54 394.4 1003.54 395.12C1003.54 395.747 1003.38 396.293 1003.06 396.76C1002.75 397.227 1002.31 397.593 1001.74 397.86C1001.17 398.113 1000.49 398.24 999.72 398.24ZM1013.31 398L1010.35 387.92H1012.03L1014.33 396.42H1014.03L1016.53 387.92H1018.43L1020.97 396.4L1020.65 396.42L1022.93 387.92H1024.63L1021.69 398H1019.97L1017.33 389.12H1017.67L1015.03 398H1013.31ZM1030.57 398.24C1029.63 398.24 1028.79 398.02 1028.05 397.58C1027.33 397.14 1026.77 396.527 1026.35 395.74C1025.94 394.94 1025.73 394.013 1025.73 392.96C1025.73 391.893 1025.93 390.967 1026.33 390.18C1026.75 389.393 1027.32 388.78 1028.05 388.34C1028.8 387.9 1029.65 387.68 1030.61 387.68C1031.6 387.68 1032.43 387.9 1033.11 388.34C1033.81 388.78 1034.33 389.36 1034.69 390.08C1035.07 390.787 1035.25 391.567 1035.25 392.42C1035.25 392.553 1035.25 392.693 1035.25 392.84C1035.25 392.987 1035.25 393.153 1035.23 393.34H1026.99V392.04H1033.61C1033.57 391.12 1033.27 390.4 1032.69 389.88C1032.13 389.36 1031.43 389.1 1030.57 389.1C1030 389.1 1029.47 389.233 1028.97 389.5C1028.49 389.753 1028.11 390.133 1027.81 390.64C1027.52 391.133 1027.37 391.753 1027.37 392.5V393.06C1027.37 393.887 1027.52 394.58 1027.81 395.14C1028.12 395.7 1028.51 396.12 1028.99 396.4C1029.49 396.68 1030.01 396.82 1030.57 396.82C1031.28 396.82 1031.86 396.667 1032.31 396.36C1032.78 396.04 1033.11 395.613 1033.31 395.08H1034.97C1034.81 395.68 1034.53 396.22 1034.13 396.7C1033.73 397.18 1033.23 397.56 1032.63 397.84C1032.05 398.107 1031.36 398.24 1030.57 398.24ZM1041.94 398.24C1040.99 398.24 1040.15 398.02 1039.42 397.58C1038.7 397.14 1038.13 396.527 1037.72 395.74C1037.31 394.94 1037.1 394.013 1037.1 392.96C1037.1 391.893 1037.3 390.967 1037.7 390.18C1038.11 389.393 1038.69 388.78 1039.42 388.34C1040.17 387.9 1041.02 387.68 1041.98 387.68C1042.97 387.68 1043.8 387.9 1044.48 388.34C1045.17 388.78 1045.7 389.36 1046.06 390.08C1046.43 390.787 1046.62 391.567 1046.62 392.42C1046.62 392.553 1046.62 392.693 1046.62 392.84C1046.62 392.987 1046.61 393.153 1046.6 393.34H1038.36V392.04H1044.98C1044.94 391.12 1044.63 390.4 1044.06 389.88C1043.5 389.36 1042.79 389.1 1041.94 389.1C1041.37 389.1 1040.83 389.233 1040.34 389.5C1039.86 389.753 1039.47 390.133 1039.18 390.64C1038.89 391.133 1038.74 391.753 1038.74 392.5V393.06C1038.74 393.887 1038.89 394.58 1039.18 395.14C1039.49 395.7 1039.88 396.12 1040.36 396.4C1040.85 396.68 1041.38 396.82 1041.94 396.82C1042.65 396.82 1043.23 396.667 1043.68 396.36C1044.15 396.04 1044.48 395.613 1044.68 395.08H1046.34C1046.18 395.68 1045.9 396.22 1045.5 396.7C1045.1 397.18 1044.6 397.56 1044 397.84C1043.41 398.107 1042.73 398.24 1041.94 398.24ZM1055.09 398L1050.29 392.48L1054.67 387.92H1056.73L1051.71 393.08L1051.73 391.88L1057.23 398H1055.09ZM1048.89 398V383.6H1050.57V398H1048.89Z" fill="#A3A3A3"/>
<path d="M628 361.5H1089" stroke="#262626"/>
<path d="M913 300H852C847.582 300 844 303.582 844 308V323C844 327.418 847.582 331 852 331H913C917.418 331 921 327.418 921 323V308C921 303.582 917.418 300 913 300Z" fill="url(#paint4_linear_70_197)" fill-opacity="0.2"/>
<path d="M913 300.5H852C847.858 300.5 844.5 303.858 844.5 308V323C844.5 327.142 847.858 330.5 852 330.5H913C917.142 330.5 920.5 327.142 920.5 323V308C920.5 303.858 917.142 300.5 913 300.5Z" stroke="#404040" stroke-opacity="0.8"/>
<path d="M787 204H726C721.582 204 718 207.582 718 212V323C718 327.418 721.582 331 726 331H787C791.418 331 795 327.418 795 323V212C795 207.582 791.418 204 787 204Z" fill="url(#paint5_linear_70_197)" fill-opacity="0.2"/>
<path d="M787 204.5H726C721.858 204.5 718.5 207.858 718.5 212V323C718.5 327.142 721.858 330.5 726 330.5H787C791.142 330.5 794.5 327.142 794.5 323V212C794.5 207.858 791.142 204.5 787 204.5Z" stroke="#404040" stroke-opacity="0.8"/>
<path d="M1043 268H982C977.582 268 974 271.582 974 276V323C974 327.418 977.582 331 982 331H1043C1047.42 331 1051 327.418 1051 323V276C1051 271.582 1047.42 268 1043 268Z" fill="url(#paint6_linear_70_197)" fill-opacity="0.2"/>
<path d="M1043 268.5H982C977.858 268.5 974.5 271.858 974.5 276V323C974.5 327.142 977.858 330.5 982 330.5H1043C1047.14 330.5 1050.5 327.142 1050.5 323V276C1050.5 271.858 1047.14 268.5 1043 268.5Z" stroke="#404040" stroke-opacity="0.8"/>
<g filter="url(#filter1_d_70_197)">
<path d="M820 291.5H946" stroke="white" stroke-width="2" stroke-linecap="round"/>
</g>
</g>
<defs>
<filter id="filter0_d_70_197" x="246.6" y="226.1" width="138.8" height="12.8" filterUnits="userSpaceOnUse" color-interpolation-filters="sRGB">
<feFlood flood-opacity="0" result="BackgroundImageFix"/>
<feColorMatrix in="SourceAlpha" type="matrix" values="0 0 0 0 0 0 0 0 0 0 0 0 0 0 0 0 0 0 127 0" result="hardAlpha"/>
<feOffset dy="1"/>
<feGaussianBlur stdDeviation="2.7"/>
<feComposite in2="hardAlpha" operator="out"/>
<feColorMatrix type="matrix" values="0 0 0 0 1 0 0 0 0 1 0 0 0 0 1 0 0 0 1 0"/>
<feBlend mode="normal" in2="BackgroundImageFix" result="effect1_dropShadow_70_197"/>
<feBlend mode="normal" in="SourceGraphic" in2="effect1_dropShadow_70_197" result="shape"/>
</filter>
<filter id="filter1_d_70_197" x="813.6" y="286.1" width="138.8" height="12.8" filterUnits="userSpaceOnUse" color-interpolation-filters="sRGB">
<feFlood flood-opacity="0" result="BackgroundImageFix"/>
<feColorMatrix in="SourceAlpha" type="matrix" values="0 0 0 0 0 0 0 0 0 0 0 0 0 0 0 0 0 0 127 0" result="hardAlpha"/>
<feOffset dy="1"/>
<feGaussianBlur stdDeviation="2.7"/>
<feComposite in2="hardAlpha" operator="out"/>
<feColorMatrix type="matrix" values="0 0 0 0 1 0 0 0 0 1 0 0 0 0 1 0 0 0 1 0"/>
<feBlend mode="normal" in2="BackgroundImageFix" result="effect1_dropShadow_70_197"/>
<feBlend mode="normal" in="SourceGraphic" in2="effect1_dropShadow_70_197" result="shape"/>
</filter>
<linearGradient id="paint0_linear_70_197" x1="21" y1="275" x2="559" y2="275" gradientUnits="userSpaceOnUse">
<stop stop-color="#9C27B0" stop-opacity="0.8"/>
<stop offset="1" stop-color="#4B0F4E" stop-opacity="0.5"/>
</linearGradient>
<linearGradient id="paint1_linear_70_197" x1="190.5" y1="300" x2="190.5" y2="331" gradientUnits="userSpaceOnUse">
<stop stop-color="white" stop-opacity="0.2"/>
<stop offset="1" stop-color="#999999" stop-opacity="0.5"/>
</linearGradient>
<linearGradient id="paint2_linear_70_197" x1="315.5" y1="242" x2="315.5" y2="331" gradientUnits="userSpaceOnUse">
<stop stop-color="white" stop-opacity="0.2"/>
<stop offset="1" stop-color="#999999" stop-opacity="0.5"/>
</linearGradient>
<linearGradient id="paint3_linear_70_197" x1="445.5" y1="204" x2="445.5" y2="331" gradientUnits="userSpaceOnUse">
<stop stop-color="white" stop-opacity="0.2"/>
<stop offset="1" stop-color="#999999" stop-opacity="0.5"/>
</linearGradient>
<linearGradient id="paint4_linear_70_197" x1="882.5" y1="300" x2="882.5" y2="331" gradientUnits="userSpaceOnUse">
<stop stop-color="white" stop-opacity="0.2"/>
<stop offset="1" stop-color="#999999" stop-opacity="0.5"/>
</linearGradient>
<linearGradient id="paint5_linear_70_197" x1="756.5" y1="204" x2="756.5" y2="331" gradientUnits="userSpaceOnUse">
<stop stop-color="white" stop-opacity="0.2"/>
<stop offset="1" stop-color="#999999" stop-opacity="0.5"/>
</linearGradient>
<linearGradient id="paint6_linear_70_197" x1="1012.5" y1="268" x2="1012.5" y2="331" gradientUnits="userSpaceOnUse">
<stop stop-color="white" stop-opacity="0.2"/>
<stop offset="1" stop-color="#999999" stop-opacity="0.5"/>
</linearGradient>
<clipPath id="clip0_70_197">
<rect width="1126" height="422" fill="white"/>
</clipPath>
</defs>
</svg>
