<svg viewBox="0 0 800 800" xmlns="http://www.w3.org/2000/svg">
  <defs>
    <linearGradient id="purpleGradient" x1="0%" y1="0%" x2="100%" y2="100%">
      <stop offset="0%" stop-color="#7c3aed" stop-opacity="0.2" />
      <stop offset="50%" stop-color="#8b5cf6" stop-opacity="0.1" />
      <stop offset="100%" stop-color="#a78bfa" stop-opacity="0.05" />
    </linearGradient>
    <filter id="glow" x="-50%" y="-50%" width="200%" height="200%">
      <feGaussianBlur stdDeviation="30" result="blur" />
      <feComposite in="SourceGraphic" in2="blur" operator="over" />
    </filter>
  </defs>
  
  <rect width="800" height="800" fill="black" />
  <rect width="800" height="800" fill="url(#purpleGradient)" />
  
  <!-- Noise texture overlay -->
  <rect width="800" height="800" fill="url(#noise)" opacity="0.05" />
  
  <!-- Lighting effect from top -->
  <ellipse cx="400" cy="-100" rx="600" ry="300" fill="#8b5cf6" opacity="0.1" filter="url(#glow)" />
  
  <!-- Subtle grid pattern -->
  <path d="M0 0h800M0 100h800M0 200h800M0 300h800M0 400h800M0 500h800M0 600h800M0 700h800M0 800h800" stroke="#8b5cf6" stroke-width="0.5" stroke-opacity="0.05" />
  <path d="M0 0v800M100 0v800M200 0v800M300 0v800M400 0v800M500 0v800M600 0v800M700 0v800M800 0v800" stroke="#8b5cf6" stroke-width="0.5" stroke-opacity="0.05" />
  
  <!-- Additional glowing elements -->
  <circle cx="200" cy="200" r="100" fill="#8b5cf6" opacity="0.03" filter="url(#glow)" />
  <circle cx="600" cy="600" r="150" fill="#8b5cf6" opacity="0.03" filter="url(#glow)" />
</svg>