<?xml version="1.0" encoding="utf-8" ?>
<svg baseProfile="full" height="194" version="1.1" width="148" xmlns="http://www.w3.org/2000/svg" xmlns:ev="http://www.w3.org/2001/xml-events" xmlns:xlink="http://www.w3.org/1999/xlink"><defs><linearGradient id="gradient" x1="0" x2="0" y1="0" y2="1"><stop offset="0" stop-color="#8e44ad" /><stop offset="1" stop-color="#2980b9" /></linearGradient></defs><polygon fill="url(#gradient)" points="6.0,40.0 6.0,152.0 7.0,153.0 7.0,154.0 12.0,159.0 12.0,160.0 18.0,166.0 18.0,167.0 23.0,172.0 23.0,173.0 28.0,178.0 28.0,179.0 33.0,184.0 33.0,185.0 38.0,190.0 43.0,185.0 43.0,184.0 48.0,179.0 48.0,178.0 53.0,173.0 53.0,172.0 58.0,167.0 58.0,166.0 63.0,161.0 63.0,160.0 69.0,154.0 69.0,153.0 70.0,152.0 70.0,112.0 52.0,94.0 52.0,93.0 70.0,75.0 70.0,40.0 69.0,41.0 69.0,42.0 64.0,47.0 64.0,48.0 59.0,53.0 59.0,54.0 54.0,59.0 54.0,60.0 48.0,66.0 48.0,67.0 43.0,72.0 43.0,73.0 38.0,78.0 32.0,72.0 32.0,71.0 27.0,66.0 27.0,65.0 22.0,60.0 22.0,59.0 17.0,54.0 17.0,53.0 12.0,48.0 12.0,47.0 7.0,42.0 7.0,41.0" stroke="none" /><polygon fill="url(#gradient)" points="112.0,1.0 108.0,5.0 108.0,6.0 103.0,11.0 103.0,12.0 98.0,17.0 98.0,18.0 93.0,23.0 93.0,24.0 87.0,30.0 87.0,31.0 82.0,36.0 82.0,37.0 80.0,39.0 80.0,75.0 98.0,93.0 98.0,94.0 80.0,112.0 80.0,151.0 82.0,149.0 82.0,148.0 87.0,143.0 87.0,142.0 92.0,137.0 92.0,136.0 97.0,131.0 97.0,130.0 102.0,125.0 102.0,124.0 108.0,118.0 108.0,117.0 112.0,113.0 118.0,119.0 118.0,120.0 123.0,125.0 123.0,126.0 129.0,132.0 129.0,133.0 134.0,138.0 134.0,139.0 139.0,144.0 139.0,145.0 144.0,150.0 144.0,151.0 144.0,38.0 138.0,32.0 138.0,31.0 133.0,26.0 133.0,25.0 128.0,20.0 128.0,19.0 123.0,14.0 123.0,13.0 118.0,8.0 118.0,7.0 113.0,2.0 113.0,1.0" stroke="none" /></svg>