<svg viewBox="0 0 800 800" xmlns="http://www.w3.org/2000/svg">
  <defs>
    <linearGradient id="sphereGradient" x1="0%" y1="0%" x2="100%" y2="100%">
      <stop offset="0%" stop-color="#7c3aed" stop-opacity="0.8" />
      <stop offset="50%" stop-color="#8b5cf6" stop-opacity="0.7" />
      <stop offset="100%" stop-color="#a78bfa" stop-opacity="0.9" />
    </linearGradient>
    <filter id="glow">
      <feGaussianBlur stdDeviation="20" result="blur" />
      <feComposite in="SourceGraphic" in2="blur" operator="over" />
    </filter>
    <radialGradient id="sphereHighlight" cx="30%" cy="30%" r="50%" fx="20%" fy="20%">
      <stop offset="0%" stop-color="white" stop-opacity="0.8" />
      <stop offset="100%" stop-color="white" stop-opacity="0" />
    </radialGradient>
  </defs>
  
  <!-- Base sphere -->
  <circle cx="400" cy="400" r="300" fill="url(#sphereGradient)" filter="url(#glow)" />
  
  <!-- Subtle highlight -->
  <circle cx="400" cy="400" r="280" fill="none" stroke="white" stroke-opacity="0.3" stroke-width="2" />
  
  <!-- Highlight effect -->
  <ellipse cx="300" cy="300" rx="150" ry="150" fill="url(#sphereHighlight)" opacity="0.2" />
  
  <!-- Swirl effects -->
  <path d="M400,550 C450,500 500,450 550,400 C500,350 450,300 400,250 C350,300 300,350 250,400 C300,450 350,500 400,550 Z" 
        fill="none" stroke="#c4b5fd" stroke-width="10" opacity="0.4" />
        
  <path d="M250,550 C300,500 350,450 400,400 C350,350 300,300 250,250 C200,300 150,350 100,400 C150,450 200,500 250,550 Z" 
        fill="none" stroke="#8b5cf6" stroke-width="10" opacity="0.3" />
        
  <path d="M550,550 C600,500 650,450 700,400 C650,350 600,300 550,250 C500,300 450,350 400,400 C450,450 500,500 550,550 Z" 
        fill="none" stroke="#a78bfa" stroke-width="10" opacity="0.3" />
  
  <!-- Dynamic ripple -->
  <circle cx="400" cy="400" r="350" fill="none" stroke="#ddd6fe" stroke-width="2" opacity="0.2" />
  <circle cx="400" cy="400" r="375" fill="none" stroke="#ddd6fe" stroke-width="1" opacity="0.1" />
</svg>